<svg width="835" height="835" version="1.1" xmlns="http://www.w3.org/2000/svg"><path fill="rgb(0,0,0)" stroke="rgb(0,0,0)" stroke-width="1" opacity="0.5803921568627451" d="M 335.5 335 L 336.5 337 L 335.5 335 Z "></path><path fill="rgb(0,0,0)" stroke="rgb(0,0,0)" stroke-width="1" opacity="0.5803921568627451" d="M 403.5 341 L 404 343.5 L 403 343.5 L 403.5 341 Z "></path><path fill="rgb(0,0,0)" stroke="rgb(0,0,0)" stroke-width="1" opacity="0.5803921568627451" d="M 389.5 360 L 390.5 362 L 389.5 360 Z "></path><path fill="rgb(0,0,0)" stroke="rgb(0,0,0)" stroke-width="1" opacity="0.5803921568627451" d="M 395.5 362 L 394.5 364 L 395.5 362 Z "></path><path fill="rgb(0,0,0)" stroke="rgb(0,0,0)" stroke-width="1" opacity="0.5803921568627451" d="M 397.5 377 L 396.5 379 L 397.5 377 Z "></path><path fill="rgb(0,0,0)" stroke="rgb(0,0,0)" stroke-width="1" opacity="0.5803921568627451" d="M 362.5 389 L 363.5 391 L 362.5 389 Z "></path><path fill="rgb(0,0,0)" stroke="rgb(0,0,0)" stroke-width="1" opacity="0.5803921568627451" d="M 364.5 392 L 365.5 394 L 364.5 392 Z "></path><path fill="rgb(0,0,0)" stroke="rgb(0,0,0)" stroke-width="1" opacity="0.5803921568627451" d="M 386.5 392 L 385.5 394 L 386.5 392 Z "></path><path fill="rgb(0,0,0)" stroke="rgb(0,0,0)" stroke-width="1" opacity="0.5803921568627451" d="M 366.5 395 L 367.5 397 L 366.5 395 Z "></path><path fill="rgb(0,0,0)" stroke="rgb(0,0,0)" stroke-width="1" opacity="0.5803921568627451" d="M 369.5 399 L 370.5 401 L 369.5 399 Z "></path><path fill="rgb(0,0,0)" stroke="rgb(0,0,0)" stroke-width="1" opacity="0.5803921568627451" d="M 499.5 472 L 500 474.5 L 499 474.5 L 499.5 472 Z "></path><path fill="rgb(0,0,0)" stroke="rgb(0,0,0)" stroke-width="1" opacity="0.5803921568627451" d="M 485.5 491 L 486.5 493 L 485.5 491 Z "></path><path fill="rgb(0,0,0)" stroke="rgb(0,0,0)" stroke-width="1" opacity="0.5803921568627451" d="M 491.5 493 L 490.5 495 L 491.5 493 Z "></path><path fill="rgb(0,0,0)" stroke="rgb(0,0,0)" stroke-width="1" opacity="0.5803921568627451" d="M 493.5 508 L 492.5 510 L 493.5 508 Z "></path><path fill="rgb(0,0,0)" stroke="rgb(0,0,0)" stroke-width="1" opacity="0.5803921568627451" d="M 458.5 520 L 459.5 522 L 458.5 520 Z "></path><path fill="rgb(0,0,0)" stroke="rgb(0,0,0)" stroke-width="1" opacity="0.5803921568627451" d="M 460.5 523 L 461.5 525 L 460.5 523 Z "></path><path fill="rgb(0,0,0)" stroke="rgb(0,0,0)" stroke-width="1" opacity="0.5803921568627451" d="M 482.5 523 L 480.5 526 L 482.5 523 Z "></path><path fill="rgb(0,0,0)" stroke="rgb(0,0,0)" stroke-width="1" opacity="0.5803921568627451" d="M 462.5 526 L 463.5 528 L 462.5 526 Z "></path><path fill="rgb(0,0,0)" stroke="rgb(0,0,0)" stroke-width="1" opacity="0.5803921568627451" d="M 465.5 530 L 466.5 532 L 465.5 530 Z "></path><path fill="rgb(0,0,0)" stroke="rgb(0,0,0)" stroke-width="1" opacity="1" d="M 406.5 2 L 409.5 3 L 411.5 2 L 413.5 3 L 415.5 2 L 418.5 3 L 420.5 3 L 423.5 2 L 424.5 3 L 445.5 3 L 446.5 4 L 465.5 5 L 511.5 13 L 528.5 18 L 532.5 18 L 539.5 21 L 543.5 21 L 545.5 23 L 563.5 28 L 565.5 30 L 576.5 33 L 585.5 38 L 589 38 Q 587.8 41 591.5 40 L 639.5 66 L 685 99 Q 683.9 101.7 686.5 101 L 705.5 119 L 707 119 L 709.5 123 L 711 123 L 711 126 Q 714.8 124.5 714 127.5 L 718 130 L 721 135.5 L 719.5 135 Q 717.3 135.8 718 133.5 L 714.5 131 L 716 133.5 L 715 135.5 L 720 141.5 L 718.5 141 L 717 141.5 Q 718.7 145.8 720.5 143 Q 722.8 142.3 722 144.5 L 720 144.5 L 729 155.5 L 724 151.5 L 721.5 148 L 720 148.5 L 735 166.5 L 731 163.5 L 711.5 142 L 710.5 144 L 701.5 136 L 699 137.5 L 702 139.5 L 697.5 140 L 690.5 134 L 689 138.5 L 691 139 Q 690.4 143.6 694 145.5 L 690.5 143 Q 687.4 139.3 682 139 L 684 144.5 L 680 150.5 L 682 153.5 L 679.5 152 L 677.5 151 L 677 152.5 L 690 167.5 L 688.5 167 L 686 165.5 Q 686.8 163.3 684.5 164 L 674 156 Q 675 153 672 154 L 673 159 Q 668.5 157.3 670 162.5 L 670.5 164 L 667.5 163 L 665 163.5 L 668 169.5 L 664.5 167 L 661 168.5 Q 663.3 169.7 660.5 171 L 659 170.5 L 661 177 L 657.5 176 L 658 177.5 L 669 192.5 L 666 190.5 Q 666.8 188.3 664.5 189 Q 659.5 182.1 652 179 L 653 181.5 Q 651.8 184.3 650.5 182 Q 647.5 181.1 649 185.5 L 649.5 187 L 645.5 189 L 642.5 188 L 640.5 190 L 638 188.5 L 641 192.5 L 639.5 192 L 638 192 L 638 196 L 635 196 Q 636 193 633 194 L 634 196.5 Q 631.5 198 635 199.5 Q 635.8 201.8 633.5 201 L 629.5 199 L 627 199.5 L 627.5 201 L 626 201.5 L 638 217.5 L 634.5 215 Q 632.3 215.8 633 213.5 L 621.5 204 L 621 205.5 L 623 209 L 615.5 206 L 616 207.5 Q 615.1 213.9 619 215.5 L 617.5 215 L 610.5 210 L 610 211.5 L 611.5 214 L 607.5 213 L 606.5 215 L 604 214 L 606 218.5 L 605.5 221 L 603.5 220 L 604 221.5 L 612 232 Q 614.7 230.9 614 233.5 L 616.5 237 L 613 235 L 611.5 232 L 605.5 227 L 603.5 232 L 602 231.5 L 603 234.5 L 600 233.5 L 599.5 235 L 591.5 229 L 593 231.5 L 597 236.5 L 597 238.5 L 594.5 237 Q 590.8 235.8 592 239.5 L 593 241.5 L 589.5 239 L 586.5 238 L 588 240.5 L 591 245.5 L 587.5 243 L 582.5 241 L 584 243.5 L 586 246.5 L 595 256.5 L 584.5 247 L 582.5 246 L 580.5 246 L 578.5 247 L 578.5 245 L 575.5 246 L 575.5 244 L 573 245.5 L 578 251.5 L 575 250.5 L 574.5 252 L 572 251 L 574 257.5 L 570.5 255 L 567.5 256 L 564 254 L 565 256.5 L 563 257.5 L 564 260.5 L 559.5 257 L 558 257.5 L 563 265 Q 565.7 263.9 565 266.5 L 571 274.5 L 570 274.5 L 567.5 271 L 558.5 264 L 559.5 267 L 555.5 264 L 555 265.5 L 558 269.5 L 556.5 270 L 551.5 266 L 551 267.5 L 552.5 270 L 548.5 268 L 550 270.5 L 551 272.5 L 547.5 270 L 544.5 269 L 545.5 272 L 543.5 271 L 543 272.5 L 545.5 276 L 542 273.5 L 546 278.5 L 544.5 279 L 542.5 279 L 539.5 278 L 547 286.5 Q 573.6 315.9 591.5 354 L 592 350.5 L 591 347.5 L 592 347.5 L 593.5 350 L 595 349.5 L 594 351.5 L 597.5 356 L 598 352.5 L 594 339.5 L 598 342.5 L 598.5 345 L 599.5 343 L 601.5 344 Q 602.8 341.8 604 344.5 L 603.5 346 Q 606.9 346.9 605 341.5 L 607 342.5 L 607.5 344 L 608 341.5 L 607 339.5 L 608 336 L 610 335.5 L 605 324.5 L 607 325.5 L 616.5 342 L 617 339.5 L 615 334.5 L 617.5 334 Q 619.8 333.3 619 335.5 L 620 335.5 L 619 330.5 Q 620.5 327.5 622 330.5 L 622.5 332 L 623 328.5 L 622 326.5 L 624 327.5 L 625.5 330 L 627.5 326 L 629.5 329 L 630 326.5 L 628 323.5 L 630 324.5 L 632.5 330 L 634 329.5 L 635.5 332 L 636 329.5 L 634 324.5 L 635 319.5 L 631 310.5 L 632 310.5 L 639 321.5 L 640 326 L 642 325.5 L 640 317.5 L 642 318.5 L 644.5 323 L 645 318.5 L 644 316.5 L 646 317.5 L 647.5 320 L 650.5 322 L 651 319.5 L 649 315.5 L 650.5 316 Q 652.8 315.3 652 317.5 L 655.5 323 L 656 320.5 L 653 311.5 Q 654.3 308.8 655.5 311 L 660 312 Q 659 309 662 310 L 662 307.5 L 658 298.5 L 660 299.5 L 667 312.5 L 667 315 Q 670.7 316.4 669 310.5 L 668.5 309 L 672.5 314 L 673.5 312 L 675.5 313 L 677.5 309 L 680 310.5 L 680.5 307 L 685 310.5 Q 684.3 313.1 687 312 L 686 307.5 L 687.5 304 L 688.5 306 Q 690.8 305.3 690 301.5 L 684 287.5 L 686 288.5 Q 688.1 295.9 693.5 300 Q 696.8 298.9 696 301.5 L 697.5 301 Q 699.8 301.8 699 299.5 L 699 297.5 L 699.5 296 L 701 296.5 L 701.5 295 L 705 297.5 L 706 294 Q 709.8 293 711 295.5 L 711.5 297 L 712 294.5 L 712 292.5 L 711 288.5 L 712 288.5 L 713.5 292 Q 714.8 289.8 716 292.5 L 716.5 294 L 717 291.5 L 716 289.5 L 717 287 Q 720 285.8 719 289.5 L 720 289.5 Q 719.3 286.9 722 288 L 722.5 290 L 723 287.5 L 721 283.5 L 725 285.5 L 725 281.5 L 720 269.5 L 721 269.5 L 730 286 L 732 285.5 L 731.5 284 L 733.5 285 L 736 284 Q 734.7 279.9 738 281 L 739.5 284 L 740 282.5 L 739 280.5 L 740 280.5 Q 739.3 282.8 741.5 282 L 744.5 278 L 746.5 277 L 748.5 279 L 752 276.5 L 751.5 278 Q 754.1 278.8 753 275.5 L 755 275.5 L 755 271.5 L 750 258.5 L 752 259.5 L 760 275 L 762 274.5 L 761 272 L 765.5 275 L 766 273.5 Q 763.5 272 767 270.5 L 768 268.5 L 767.5 267 L 771 273 L 773.5 274 L 774 270.5 L 774 268.5 L 773 261.5 L 774 261.5 L 779.5 270 L 780 267.5 L 778 263.5 L 779 259.5 L 778 257 L 780.5 256 L 783 257.5 L 780 246.5 L 781 243.5 L 767 215.5 L 769 216.5 L 777.5 232 L 778 230.5 L 774 223.5 L 776 224.5 L 784.5 241 L 785.5 239 L 790.5 249 L 791 246.5 L 789 242.5 L 790 242.5 L 796.5 256 L 797.5 254 L 800 256.5 L 803 265.5 L 805 267.5 L 805 271.5 L 808 275.5 L 807 277.5 L 810 283.5 L 810 285.5 L 813 297.5 L 815 300.5 L 814 303.5 L 817 308.5 L 816 312.5 L 818 312.5 L 816 315.5 Q 819 316.9 818.5 322 L 820 321.5 L 819 323.5 L 820 326.5 L 822 332.5 L 822 334.5 Q 824.9 338.1 824 345.5 L 826 347.5 L 826 355.5 L 827 356.5 L 826 358.5 L 828 362.5 L 830 377.5 L 830 379.5 L 831 387.5 L 830 391.5 L 832 401.5 L 831 406.5 L 832 409.5 L 831 412.5 L 832 416.5 L 831 418.5 L 832 421.5 L 831 423.5 L 832 426.5 L 832 428.5 L 831 432.5 L 832 437.5 L 831 442.5 L 832 444.5 L 831 445.5 L 831 454.5 L 832 457.5 L 831 457.5 L 830.5 456 L 830 459.5 L 830 461.5 L 831 464.5 L 829 466.5 L 829 472.5 L 826 481.5 L 827 483.5 L 826 488.5 L 827 490.5 L 826 490.5 L 825.5 489 Q 822.8 490.3 825 491.5 L 823 499.5 L 825 502.5 L 824 502.5 L 823.5 501 L 822 504.5 Q 824.5 506 821 507.5 L 822 509.5 Q 819.3 511.8 820 517.5 L 820.5 519 L 819 518.5 L 818 527.5 L 816 529.5 L 818 530 Q 819 533 816 532 L 816 534.5 L 816.5 536 L 814 537.5 L 815 539.5 Q 811.5 541 814 542.5 L 813.5 545 L 812 544.5 L 813 547.5 L 811 547.5 L 807 559.5 L 807.5 561 L 806 560.5 L 807 564.5 L 806 564.5 L 805.5 563 L 803 566.5 L 804.5 569 L 803 568.5 L 804 572.5 L 803 572.5 L 802.5 571 Q 798 575.6 798 584 Q 795 582.8 796 586.5 L 797 588.5 L 796 588.5 L 795.5 587 L 790 597.5 L 790.5 599 Q 788.3 598.3 789 600.5 Q 784.6 604.1 784 611.5 L 784.5 613 L 782 612 L 782 614.5 L 771 632.5 L 771 634.5 L 771.5 636 Q 769.7 633.3 768 637.5 L 769 640.5 L 766 641.5 L 767 643.5 L 764 644.5 L 762.5 649 L 761 648.5 L 760 651.5 L 760.5 653 Q 759.3 650.8 758 653.5 L 757.5 657 Q 756.3 654.8 755 657.5 L 755.5 659 L 753 660.5 Q 754.5 664.9 751.5 664 Q 747.8 666 749.5 668 L 747 669.5 L 744 673.5 L 744 676 Q 739.9 674.3 741 678.5 L 737 681.5 L 735 687 L 732 688.5 L 730.5 691 L 728 692.5 L 724 699 L 721 700.5 L 719.5 703 L 717 704.5 L 715.5 707 Q 713.3 706.3 714 708.5 L 702 719.5 L 700.5 722 L 697 724.5 Q 697.8 726.8 695.5 726 L 688 732 Q 689.1 734.7 686.5 734 Q 659.2 758.2 626.5 777 L 593.5 794 L 559.5 808 L 512.5 822 L 474.5 829 L 458.5 830 L 457.5 831 L 445.5 831 L 444.5 832 L 393.5 832 L 392.5 831 L 380.5 831 L 371.5 829 L 355.5 828 L 350.5 826 L 344.5 826 L 325.5 822 L 277.5 808 L 245.5 795 L 205.5 774 L 175.5 754 Q 140 728.5 111 696.5 L 109 693.5 Q 57.7 637.8 28 560.5 L 17 526.5 L 9 491.5 L 6 465.5 L 5 464.5 L 5 455.5 L 4 454.5 L 3 419.5 L 2 418.5 L 3 417.5 L 3 388.5 L 4 387.5 L 5 367.5 L 8 353.5 L 8 347.5 L 17 306.5 L 26 280.5 L 26 277.5 L 41 241.5 L 60 205.5 L 76 180.5 L 104 144 Q 106.7 145.1 106 142.5 L 131.5 116 Q 133.8 116.8 133 114.5 L 138 110.5 Q 137.3 108.3 139.5 109 L 154 96.5 Q 153.3 94.3 155.5 95 L 158 94 L 159.5 91 L 168 86 Q 166.9 83.3 169.5 84 L 185.5 72 L 187.5 72 L 196.5 65 L 210.5 58 L 218.5 52 L 224.5 50 L 227.5 47 Q 229 49.5 230.5 46 L 240.5 41 L 242.5 41 L 247.5 38 L 250.5 38 L 252.5 36 L 267.5 31 L 271.5 28 L 273.5 28 L 279.5 25 L 281.5 25 Q 286.7 25.2 288.5 22 L 290.5 22 L 299.5 20 L 301.5 18 L 303.5 18 L 322.5 14 L 326.5 12 L 359.5 6 L 361.5 7 L 376.5 4 L 378.5 5 L 380.5 4 L 382.5 4 Q 388 5.5 389.5 3 L 391.5 4 L 392.5 3 L 405.5 3 L 406.5 2 Z M 779 232 L 778 235 L 780 236 L 779 232 Z M 786 241 L 785 244 L 787 245 L 786 241 Z M 405 273 L 404 274 L 396 274 L 390 277 L 395 278 L 398 277 L 399 278 L 398 278 L 396 278 L 393 279 Q 391 277 390 280 L 388 279 L 386 281 L 378 282 L 376 284 L 370 285 L 356 291 Q 338 300 325 313 Q 322 312 323 315 L 319 317 L 308 331 Q 309 333 306 332 L 305 335 Q 306 337 303 336 Q 304 341 300 343 Q 301 345 298 344 L 298 347 L 288 365 L 287 371 L 285 373 L 280 394 L 279 410 L 278 411 L 279 414 L 279 416 L 278 419 L 279 421 L 278 423 L 279 424 L 280 438 L 280 440 L 283 454 L 293 480 L 302 495 L 310 505 Q 309 507 312 506 L 317 513 Q 316 515 319 514 L 321 518 L 343 534 Q 345 533 344 536 L 347 536 L 369 548 L 397 556 L 399 555 L 405 557 L 407 556 L 409 557 L 413 556 L 414 558 L 416 557 L 418 557 L 428 557 L 429 556 L 431 557 L 436 557 L 443 555 Q 444 558 446 554 L 448 555 L 467 550 Q 468 546 470 549 L 494 537 L 511 525 L 514 520 L 518 518 Q 517 515 520 516 L 524 511 L 528 508 L 532 502 Q 531 499 534 500 Q 537 498 536 496 Q 538 497 537 493 L 539 493 L 542 488 L 542 485 L 545 484 L 544 482 L 548 476 Q 547 471 550 472 L 557 448 L 557 446 L 559 436 L 559 434 L 560 431 L 559 429 L 561 422 L 560 419 L 560 417 L 561 414 L 559 403 L 560 401 L 558 391 L 558 389 L 556 385 L 557 383 Q 553 381 556 380 L 548 354 L 546 352 L 547 349 L 550 356 L 551 356 L 550 351 L 543 338 Q 535 324 524 314 L 522 315 L 526 319 Q 528 318 527 321 L 531 325 L 529 324 L 527 321 L 510 308 L 507 305 L 506 306 L 505 305 L 495 297 Q 492 298 493 295 Q 489 295 487 292 Q 483 293 484 290 L 481 291 L 481 290 L 480 289 L 478 289 Q 475 290 476 287 L 472 287 L 472 286 L 471 286 Q 467 287 468 284 L 464 284 L 464 283 L 463 283 Q 459 284 460 281 L 457 282 L 457 280 L 454 281 L 452 281 L 454 280 L 447 277 L 446 279 L 443 279 L 445 278 L 445 277 L 440 278 L 440 277 L 427 274 L 419 277 L 419 275 L 416 277 L 413 277 L 416 276 Q 409 276 405 273 Z M 775 274 L 774 277 L 775 277 L 775 274 Z M 545 301 L 544 303 Q 557 315 565 333 L 567 334 L 562 323 L 552 309 L 545 301 Z M 529 309 L 528 311 L 531 313 L 529 309 Z M 532 313 L 532 316 Q 543 328 551 344 L 553 345 Q 546 327 534 315 L 532 313 Z M 631 330 L 630 333 L 631 333 L 631 330 Z M 568 334 L 568 338 L 569 338 L 568 334 Z M 554 345 L 554 349 L 555 349 L 554 345 Z M 593 354 L 592 357 L 593 357 L 593 354 Z M 232 446 L 231 452 L 233 461 L 233 464 L 231 460 L 230 465 L 228 462 L 226 461 L 227 465 L 225 471 L 227 474 L 226 476 L 220 462 L 218 467 Q 221 487 229 502 L 229 503 L 218 483 L 215 474 L 213 475 L 214 477 Q 216 478 214 479 L 212 477 L 212 475 Q 211 472 210 474 Q 207 475 208 473 L 206 474 L 207 479 L 204 478 L 207 489 L 206 491 L 203 487 L 198 483 L 199 487 L 199 489 L 191 467 L 191 463 L 190 463 L 190 469 L 193 480 L 193 482 L 192 481 L 191 481 Q 196 504 206 522 L 206 523 Q 196 507 190 488 L 188 489 L 191 497 L 191 501 L 186 492 L 185 492 L 188 503 L 188 506 L 184 498 L 183 498 L 186 508 L 186 509 L 182 504 Q 183 501 180 502 L 180 498 L 179 498 L 177 496 Q 176 493 174 496 L 176 504 L 177 505 L 172 498 L 171 498 L 173 507 L 174 508 Q 171 509 172 507 L 170 506 L 171 509 L 169 509 Q 173 525 181 538 L 181 539 L 168 515 L 158 489 L 157 489 L 159 497 L 159 498 L 158 496 L 157 499 L 153 492 L 150 479 L 149 479 Q 147 485 150 487 L 150 488 L 149 487 L 148 487 L 150 495 L 148 495 L 146 490 Q 147 486 145 487 L 145 489 L 144 491 L 144 495 L 146 502 L 146 505 L 143 497 L 140 496 L 141 494 L 139 491 L 138 491 L 136 486 L 135 486 L 135 491 L 139 507 L 139 509 L 143 524 Q 148 529 149 539 L 150 540 Q 140 527 135 510 Q 136 507 133 508 L 131 502 L 130 502 L 132 510 L 132 512 L 129 506 Q 126 505 127 509 L 127 511 L 127 513 L 124 505 L 122 507 L 123 510 L 121 507 L 120 509 L 117 502 L 116 502 L 117 506 L 115 506 Q 113 510 117 509 L 116 511 L 119 522 L 120 523 L 116 514 L 115 517 L 111 508 L 110 508 L 112 515 L 112 517 L 111 516 L 108 514 L 110 513 L 110 512 Q 105 510 106 514 L 106 516 L 108 520 L 108 522 Q 105 522 105 518 L 104 518 L 105 522 L 105 524 L 102 517 L 101 517 L 103 528 L 103 530 L 105 532 L 105 537 L 107 539 L 107 542 L 113 557 L 114 558 L 107 547 L 94 511 L 93 511 L 96 525 Q 97 527 94 526 L 90 514 Q 89 511 87 514 L 94 536 L 94 537 L 84 514 L 82 513 L 83 518 L 81 518 L 82 520 L 84 519 L 83 521 Q 82 525 84 527 L 82 527 L 83 531 L 85 531 L 84 534 L 81 527 L 80 527 L 80 526 L 77 521 L 76 521 L 77 526 Q 75 527 78 529 Q 79 532 75 530 L 75 532 L 77 531 L 79 532 L 76 532 L 76 534 L 74 531 L 72 532 L 75 539 L 74 538 L 73 541 L 75 540 L 76 543 L 77 544 L 75 542 L 74 542 L 77 553 L 85 572 L 86 573 L 83 571 L 76 556 L 65 526 L 64 526 L 68 540 L 67 542 L 69 542 L 68 546 L 70 545 L 70 548 L 67 546 L 64 535 L 62 536 L 65 542 L 64 541 L 63 543 L 58 530 L 57 533 L 55 533 L 57 538 L 57 540 L 52 530 L 52 527 L 50 525 L 51 523 L 50 523 Q 51 521 48 520 L 50 519 L 49 518 L 46 512 L 45 512 L 52 540 L 58 555 L 58 557 L 51 545 Q 52 540 49 541 L 47 534 L 45 533 L 49 547 L 49 551 L 52 557 L 52 560 L 49 557 L 48 557 L 48 556 L 47 552 L 44 556 L 53 579 L 53 580 L 52 579 L 51 579 L 56 591 L 55 594 L 58 595 L 56 595 L 58 600 L 61 601 L 60 600 L 59 603 Q 60 605 62 603 L 61 605 L 78 636 L 79 637 L 66 618 L 62 609 L 60 608 L 64 617 L 65 618 L 61 612 L 60 614 L 53 603 L 50 603 Q 68 641 94 673 L 98 676 L 99 675 L 98 677 L 100 680 L 102 679 L 103 682 L 105 682 L 87 658 L 87 656 L 92 664 L 96 667 L 88 655 L 87 652 L 98 668 L 100 668 L 88 651 L 87 648 L 101 668 L 106 672 L 107 671 L 118 683 L 118 682 L 119 682 L 118 684 L 120 684 L 121 683 L 126 688 L 129 690 L 128 689 L 131 690 L 132 689 L 131 687 L 131 685 L 132 688 L 135 687 L 136 691 L 139 691 Q 141 690 140 693 L 149 699 L 149 698 L 143 692 L 144 691 L 141 688 L 142 686 L 171 712 Q 173 711 172 714 L 177 717 L 178 717 L 177 714 L 174 713 L 174 712 L 172 710 Q 169 711 170 709 L 165 706 L 168 704 L 163 699 L 160 695 L 153 690 Q 154 687 151 688 L 152 686 L 158 691 L 148 681 Q 149 678 147 679 L 146 677 L 148 678 L 149 681 L 156 686 Q 158 685 157 688 L 170 697 L 169 696 Q 170 693 168 694 L 165 690 L 159 686 Q 160 683 158 684 L 156 682 L 156 680 L 158 681 L 160 684 L 162 683 L 158 680 L 158 679 L 144 664 Q 145 661 142 662 L 139 657 L 138 654 L 144 662 L 160 677 Q 159 679 162 678 L 162 680 L 174 689 Q 176 688 175 691 L 177 691 L 175 688 Q 176 685 174 686 L 170 682 L 174 684 L 175 684 L 168 676 L 175 681 Q 177 680 176 683 L 182 685 L 183 687 L 183 685 L 180 683 L 179 680 Q 176 681 177 679 L 175 677 L 173 675 L 173 673 L 175 674 Q 176 677 178 675 L 180 677 L 178 678 Q 179 680 181 678 L 183 679 L 183 678 L 183 676 L 189 680 Q 190 677 188 678 L 180 669 Q 183 668 182 671 L 184 670 L 185 673 L 189 674 L 190 671 L 188 672 L 188 671 L 184 666 Q 185 662 183 663 L 183 662 L 186 664 Q 188 663 187 666 L 192 669 L 192 668 L 190 666 L 174 650 Q 175 647 172 648 L 162 634 L 160 630 L 164 636 L 186 656 L 186 654 L 190 655 L 191 655 L 185 647 L 188 648 Q 190 647 189 650 L 198 656 L 200 654 L 196 650 L 197 648 L 200 650 L 201 649 L 199 645 L 202 647 L 204 650 L 206 649 L 205 648 Q 206 645 203 646 L 204 644 L 212 651 Q 214 652 213 649 L 211 649 L 213 648 L 207 643 Q 206 640 209 641 L 208 636 L 215 641 L 217 640 L 214 638 Q 215 635 212 636 L 211 634 L 213 634 L 214 634 Q 201 622 191 607 L 218 632 L 220 631 L 219 633 Q 225 633 227 637 Q 229 636 228 639 L 232 641 Q 234 642 233 640 L 228 636 Q 227 633 230 634 L 223 627 L 225 623 L 232 629 L 237 634 Q 238 630 236 631 L 235 628 Q 232 629 233 627 L 229 621 L 232 623 Q 234 622 233 625 L 258 643 L 260 643 Q 243 631 230 616 L 235 619 L 238 621 Q 240 620 238 619 Q 239 616 237 617 L 217 595 L 212 587 L 210 583 L 221 596 Q 220 598 223 597 L 224 600 L 227 601 L 226 598 L 231 602 L 228 596 L 229 596 Q 228 598 231 597 L 233 599 L 229 593 L 230 593 Q 229 595 232 594 L 233 594 L 232 596 L 235 594 L 239 596 L 242 599 L 239 594 L 238 591 L 241 593 Q 243 592 242 595 L 245 595 L 245 597 L 247 597 L 241 590 L 239 587 L 239 585 L 244 589 L 245 589 L 243 586 L 242 583 L 256 593 L 254 591 Q 255 588 253 589 L 239 575 L 234 567 L 232 563 L 243 577 L 246 578 L 249 582 Q 251 581 250 584 L 259 591 L 259 590 L 253 584 L 253 583 L 270 597 L 271 597 L 266 592 L 264 590 L 259 585 L 256 582 L 257 579 L 259 580 L 261 582 L 258 578 Q 259 575 256 576 L 257 573 L 263 576 L 262 575 L 263 573 L 268 577 L 269 577 L 267 574 L 266 571 L 274 577 Q 275 574 272 575 L 272 572 L 271 572 L 271 571 L 273 572 L 274 572 Q 271 571 271 567 L 270 567 L 270 566 Q 263 559 258 550 L 257 547 L 260 552 L 281 571 Q 283 570 282 573 L 286 575 Q 288 576 287 573 L 281 569 L 282 567 L 283 570 L 286 569 L 285 568 L 283 565 Q 284 562 282 563 L 281 561 L 291 568 L 284 559 L 291 564 Q 292 561 290 562 L 289 560 L 298 566 L 285 551 L 296 560 L 292 554 L 299 559 L 294 554 L 296 554 L 297 554 L 280 536 L 259 505 L 246 478 L 240 456 L 239 456 L 241 467 L 241 469 L 239 465 L 238 465 L 232 446 Z M 149 475 L 148 478 L 149 478 L 149 475 Z M 286 475 Q 290 493 302 506 L 307 510 Q 295 494 286 475 Z M 191 476 L 190 479 L 191 479 L 191 476 Z M 189 483 L 188 487 L 189 487 L 189 483 Z M 276 489 L 275 492 L 278 498 L 290 516 L 294 519 L 276 489 Z M 175 491 L 175 494 Q 178 493 175 491 Z M 130 498 L 129 501 L 130 501 L 130 498 Z M 123 502 L 122 505 L 123 505 L 123 502 Z M 263 502 L 265 510 L 275 525 L 278 527 L 263 502 Z M 82 507 L 81 511 L 82 511 L 82 507 Z M 87 507 L 86 511 L 88 512 L 87 507 Z M 104 514 L 103 517 L 104 517 L 104 514 Z M 64 522 L 63 525 L 64 525 L 64 522 Z M 57 526 L 56 530 L 57 530 L 57 526 Z M 61 526 L 61 532 L 62 532 L 61 526 Z M 55 528 L 54 531 L 55 531 L 55 528 Z M 73 535 L 72 538 L 73 538 L 73 535 Z M 44 549 Q 42 553 45 554 L 46 550 L 44 549 Z M 298 554 Q 296 557 299 556 L 298 554 Z M 292 564 L 293 566 Q 294 563 292 564 Z M 288 575 L 290 578 L 291 578 L 288 575 Z M 258 581 L 259 583 Q 260 580 258 581 Z M 260 591 L 261 593 L 262 593 L 260 591 Z M 257 593 L 258 595 Q 259 592 257 593 Z M 48 595 L 47 598 L 48 598 L 48 595 Z M 52 595 L 51 597 L 58 611 L 60 612 L 52 595 Z M 248 597 L 252 602 L 253 602 L 248 597 Z M 272 597 Q 270 600 273 599 L 272 597 Z M 49 598 L 49 602 L 52 602 L 51 599 L 49 598 Z M 57 599 Q 55 603 58 606 L 60 607 L 57 599 Z M 232 602 L 232 604 Q 231 606 234 605 L 233 604 Q 234 601 232 602 Z M 254 602 Q 252 605 255 604 L 254 602 Z M 243 622 Q 241 625 244 624 L 243 622 Z M 210 641 Q 208 644 211 643 L 210 641 Z M 234 641 L 235 643 L 236 643 L 234 641 Z M 217 642 L 218 644 Q 219 641 217 642 Z M 200 650 L 201 652 L 203 651 L 200 650 Z M 192 655 L 192 657 Q 191 659 194 658 L 195 659 Q 196 656 193 657 L 193 655 L 192 655 Z M 200 655 L 198 657 L 200 657 L 200 655 Z M 97 667 L 96 669 L 100 672 L 97 667 Z M 101 668 L 100 670 L 102 671 L 101 668 Z M 101 672 L 100 674 L 103 676 L 101 672 Z M 105 673 L 104 675 L 106 676 L 105 673 Z M 192 673 L 190 676 L 193 677 L 193 675 L 192 673 Z M 106 678 L 105 680 L 107 681 L 106 678 Z M 192 682 L 194 685 L 195 685 L 192 682 Z M 176 684 L 175 686 L 177 687 L 176 684 Z M 179 690 L 177 692 L 179 692 L 179 690 Z M 180 692 L 181 694 L 182 694 L 180 692 Z M 150 699 Q 148 702 151 701 L 150 699 Z "></path><path fill="rgb(0,0,0)" stroke="rgb(0,0,0)" stroke-width="1" opacity="1" d="M 717.5 136 Q 719.8 135.3 719 137.5 L 722.5 142 L 717.5 136 Z "></path><path fill="rgb(0,0,0)" stroke="rgb(0,0,0)" stroke-width="1" opacity="1" d="M 724.5 138 L 725.5 140 L 724.5 138 Z "></path><path fill="rgb(0,0,0)" stroke="rgb(0,0,0)" stroke-width="1" opacity="1" d="M 723.5 146 L 724.5 148 L 723.5 146 Z "></path><path fill="rgb(0,0,0)" stroke="rgb(0,0,0)" stroke-width="1" opacity="1" d="M 735.5 168 L 737.5 171 L 735.5 168 Z "></path><path fill="rgb(0,0,0)" stroke="rgb(0,0,0)" stroke-width="1" opacity="1" d="M 653.5 183 L 654.5 185 L 653.5 183 Z "></path><path fill="rgb(0,0,0)" stroke="rgb(0,0,0)" stroke-width="1" opacity="1" d="M 762.5 207 L 763.5 209 L 762.5 207 Z "></path><path fill="rgb(0,0,0)" stroke="rgb(0,0,0)" stroke-width="1" opacity="1" d="M 764.5 210 L 767 213.5 L 765 212.5 L 764.5 210 Z "></path><path fill="rgb(0,0,0)" stroke="rgb(0,0,0)" stroke-width="1" opacity="1" d="M 770.5 216 L 771.5 218 L 770.5 216 Z "></path><path fill="rgb(0,0,0)" stroke="rgb(0,0,0)" stroke-width="1" opacity="1" d="M 789.5 234 L 790.5 236 L 789.5 234 Z "></path><path fill="rgb(0,0,0)" stroke="rgb(0,0,0)" stroke-width="1" opacity="1" d="M 791 240 L 793 240.5 L 791 241.5 L 791 240 Z "></path><path fill="rgb(0,0,0)" stroke="rgb(0,0,0)" stroke-width="1" opacity="1" d="M 794.5 244 L 795.5 248 Q 793.3 248.8 794 246.5 Q 791.8 245.3 794.5 244 Z "></path><path fill="rgb(0,0,0)" stroke="rgb(0,0,0)" stroke-width="1" opacity="1" d="M 795.5 249 L 797 252.5 L 796 252.5 L 795.5 249 Z "></path><path fill="rgb(0,0,0)" stroke="rgb(0,0,0)" stroke-width="1" opacity="1" d="M 403.5 276 L 402.5 278 L 400 277.5 L 403.5 276 Z "></path><path fill="rgb(0,0,0)" stroke="rgb(0,0,0)" stroke-width="1" opacity="1" d="M 405.5 276 L 408 276.5 L 405.5 277 L 405.5 276 Z "></path><path fill="rgb(0,0,0)" stroke="rgb(0,0,0)" stroke-width="1" opacity="1" d="M 409.5 276 L 412 276.5 L 409.5 277 L 409.5 276 Z "></path><path fill="rgb(0,0,0)" stroke="rgb(0,0,0)" stroke-width="1" opacity="1" d="M 426.5 276 L 429 276.5 L 426.5 277 L 426.5 276 Z "></path><path fill="rgb(0,0,0)" stroke="rgb(0,0,0)" stroke-width="1" opacity="1" d="M 447.5 279 L 450 279.5 L 447.5 280 L 447.5 279 Z "></path><path fill="rgb(0,0,0)" stroke="rgb(0,0,0)" stroke-width="1" opacity="1" d="M 532.5 327 L 533.5 329 L 532.5 327 Z "></path><path fill="rgb(0,0,0)" stroke="rgb(0,0,0)" stroke-width="1" opacity="1" d="M 539.5 337 L 540.5 339 L 539.5 337 Z "></path><path fill="rgb(0,0,0)" stroke="rgb(0,0,0)" stroke-width="1" opacity="1" d="M 542.5 342 L 545 345.5 L 543 344.5 L 542.5 342 Z "></path><path fill="rgb(0,0,0)" stroke="rgb(0,0,0)" stroke-width="1" opacity="1" d="M 149.5 496 L 151 500.5 L 150 500.5 L 149.5 496 Z "></path><path fill="rgb(0,0,0)" stroke="rgb(0,0,0)" stroke-width="1" opacity="1" d="M 158.5 499 L 159.5 501 L 158.5 499 Z "></path><path fill="rgb(0,0,0)" stroke="rgb(0,0,0)" stroke-width="1" opacity="1" d="M 123.5 512 L 125 514.5 L 124 514.5 L 123.5 512 Z "></path><path fill="rgb(0,0,0)" stroke="rgb(0,0,0)" stroke-width="1" opacity="1" d="M 285.5 557 L 288 558.5 L 286.5 558 L 285.5 557 Z "></path><path fill="rgb(0,0,0)" stroke="rgb(0,0,0)" stroke-width="1" opacity="1" d="M 58.5 558 L 60 560.5 L 58 559.5 L 58.5 558 Z "></path><path fill="rgb(0,0,0)" stroke="rgb(0,0,0)" stroke-width="1" opacity="1" d="M 114.5 559 L 116 561.5 L 114 560.5 L 114.5 559 Z "></path><path fill="rgb(0,0,0)" stroke="rgb(0,0,0)" stroke-width="1" opacity="1" d="M 228.5 559 L 230.5 562 L 228.5 559 Z "></path><path fill="rgb(0,0,0)" stroke="rgb(0,0,0)" stroke-width="1" opacity="1" d="M 206.5 579 L 207.5 581 L 206.5 579 Z "></path><path fill="rgb(0,0,0)" stroke="rgb(0,0,0)" stroke-width="1" opacity="1" d="M 60.5 615 L 64 620.5 L 62 619.5 L 60.5 615 Z "></path><path fill="rgb(0,0,0)" stroke="rgb(0,0,0)" stroke-width="1" opacity="1" d="M 65.5 619 L 68 622.5 L 66 621.5 L 65.5 619 Z "></path><path fill="rgb(0,0,0)" stroke="rgb(0,0,0)" stroke-width="1" opacity="1" d="M 65.5 624 L 68 627.5 L 66 626.5 L 65.5 624 Z "></path><path fill="rgb(0,0,0)" stroke="rgb(0,0,0)" stroke-width="1" opacity="1" d="M 69.5 626 L 72 629.5 L 70 628.5 L 69.5 626 Z "></path><path fill="rgb(0,0,0)" stroke="rgb(0,0,0)" stroke-width="1" opacity="1" d="M 68.5 629 L 71 632.5 L 69 631.5 L 68.5 629 Z "></path><path fill="rgb(0,0,0)" stroke="rgb(0,0,0)" stroke-width="1" opacity="1" d="M 72.5 631 L 73.5 633 L 72.5 631 Z "></path><path fill="rgb(0,0,0)" stroke="rgb(0,0,0)" stroke-width="1" opacity="1" d="M 225.5 631 L 226.5 633 L 225.5 631 Z "></path><path fill="rgb(0,0,0)" stroke="rgb(0,0,0)" stroke-width="1" opacity="1" d="M 71.5 634 L 72.5 636 L 71.5 634 Z "></path><path fill="rgb(0,0,0)" stroke="rgb(0,0,0)" stroke-width="1" opacity="1" d="M 74.5 634 L 75.5 636 L 74.5 634 Z "></path><path fill="rgb(0,0,0)" stroke="rgb(0,0,0)" stroke-width="1" opacity="1" d="M 73.5 637 L 74.5 639 L 73.5 637 Z "></path><path fill="rgb(0,0,0)" stroke="rgb(0,0,0)" stroke-width="1" opacity="1" d="M 76.5 637 L 81 643.5 L 79 642.5 L 76.5 637 Z "></path><path fill="rgb(0,0,0)" stroke="rgb(0,0,0)" stroke-width="1" opacity="1" d="M 80.5 639 L 81.5 641 L 80.5 639 Z "></path><path fill="rgb(0,0,0)" stroke="rgb(0,0,0)" stroke-width="1" opacity="1" d="M 75.5 640 L 79 644.5 L 76 642.5 L 75.5 640 Z "></path><path fill="rgb(0,0,0)" stroke="rgb(0,0,0)" stroke-width="1" opacity="1" d="M 82.5 642 L 83.5 644 L 82.5 642 Z "></path><path fill="rgb(0,0,0)" stroke="rgb(0,0,0)" stroke-width="1" opacity="1" d="M 81.5 645 L 82.5 647 L 81.5 645 Z "></path><path fill="rgb(0,0,0)" stroke="rgb(0,0,0)" stroke-width="1" opacity="1" d="M 84.5 645 L 85.5 647 L 84.5 645 Z "></path><path fill="rgb(0,0,0)" stroke="rgb(0,0,0)" stroke-width="1" opacity="1" d="M 79.5 646 L 83 650.5 L 80 648.5 L 79.5 646 Z "></path><path fill="rgb(0,0,0)" stroke="rgb(0,0,0)" stroke-width="1" opacity="1" d="M 83.5 648 L 85.5 651 L 83.5 648 Z "></path><path fill="rgb(0,0,0)" stroke="rgb(0,0,0)" stroke-width="1" opacity="1" d="M 83.5 652 L 85.5 655 L 83.5 652 Z "></path><path fill="rgb(0,0,0)" stroke="rgb(0,0,0)" stroke-width="1" opacity="1" d="M 181.5 660 L 180.5 662 L 181.5 660 Z "></path><path fill="rgb(0,0,0)" stroke="rgb(0,0,0)" stroke-width="1" opacity="1" d="M 99.5 662 L 100.5 664 L 99.5 662 Z "></path><path fill="rgb(0,0,0)" stroke="rgb(0,0,0)" stroke-width="1" opacity="1" d="M 102.5 666 L 104.5 669 L 102.5 666 Z "></path><path fill="rgb(0,0,0)" stroke="rgb(0,0,0)" stroke-width="1" opacity="1" d="M 165.5 673 L 166.5 675 L 165.5 673 Z "></path><path fill="rgb(0,0,0)" stroke="rgb(0,0,0)" stroke-width="1" opacity="1" d="M 162.5 700 L 163.5 702 L 162.5 700 Z "></path><path fill="rgb(255,255,255)" stroke="rgb(255,255,255)" stroke-width="1" opacity="0.49411764705882355" d="M 381.5 0 L 383.5 1 L 384.5 0 L 399.5 0 L 399.5 1 L 374.5 2 L 367.5 4 L 367 2 L 380.5 1 L 381.5 0 Z "></path><path fill="rgb(255,255,255)" stroke="rgb(255,255,255)" stroke-width="1" opacity="0.49411764705882355" d="M 401.5 0 L 404 0.5 L 401.5 1 L 401.5 0 Z "></path><path fill="rgb(255,255,255)" stroke="rgb(255,255,255)" stroke-width="1" opacity="0.49411764705882355" d="M 431.5 0 L 434 0.5 L 431.5 1 L 431.5 0 Z "></path><path fill="rgb(255,255,255)" stroke="rgb(255,255,255)" stroke-width="1" opacity="0.49411764705882355" d="M 435.5 0 Q 446.2 -1.8 452.5 1 L 454.5 0 L 459 1.5 L 448.5 2 L 447.5 1 L 435.5 1 L 435.5 0 Z "></path><path fill="rgb(255,255,255)" stroke="rgb(255,255,255)" stroke-width="1" opacity="0.49411764705882355" d="M 460 1 L 465.5 2 L 467.5 2 L 475 3.5 L 468.5 4 L 467.5 3 L 460 3 L 460 1 Z "></path><path fill="rgb(255,255,255)" stroke="rgb(255,255,255)" stroke-width="1" opacity="0.49411764705882355" d="M 364.5 2 L 365 4 L 350.5 5 Q 344.8 8.3 335.5 8 L 299.5 17 L 264.5 29 L 241.5 39 L 196.5 63 L 192.5 67 L 190.5 67 L 170.5 81 L 138.5 107 L 140.5 104 L 155 93 L 156.5 90 L 169 82 Q 167.9 79.3 170.5 80 L 182.5 71 L 185 71 Q 183.9 68.3 186.5 69 L 204.5 57 L 224.5 47 L 227.5 44 L 247.5 36 L 255.5 31 L 257.5 31 L 268.5 26 L 279.5 23 L 281.5 21 L 283.5 21 L 294.5 17 L 305.5 15 L 308.5 13 L 310.5 13 L 338.5 6 L 340.5 7 L 343.5 5 L 345.5 6 L 345.5 4 L 349.5 5 L 356.5 3 L 358.5 3 Q 363.3 4.3 364.5 2 Z "></path><path fill="rgb(255,255,255)" stroke="rgb(255,255,255)" stroke-width="1" opacity="0.49411764705882355" d="M 478.5 3 L 504 8.5 L 499.5 9 L 482.5 5 L 480.5 5 L 477 4.5 L 478.5 3 Z "></path><path fill="rgb(255,255,255)" stroke="rgb(255,255,255)" stroke-width="1" opacity="0.49411764705882355" d="M 510.5 10 L 513 10.5 L 510.5 11 L 510.5 10 Z "></path><path fill="rgb(255,255,255)" stroke="rgb(255,255,255)" stroke-width="1" opacity="0.49411764705882355" d="M 514.5 11 L 517 11.5 L 514.5 12 L 514.5 11 Z "></path><path fill="rgb(255,255,255)" stroke="rgb(255,255,255)" stroke-width="1" opacity="0.49411764705882355" d="M 518.5 12 L 521 12.5 L 518.5 13 L 518.5 12 Z "></path><path fill="rgb(255,255,255)" stroke="rgb(255,255,255)" stroke-width="1" opacity="0.49411764705882355" d="M 522.5 13 L 525 13.5 L 522.5 14 L 522.5 13 Z "></path><path fill="rgb(255,255,255)" stroke="rgb(255,255,255)" stroke-width="1" opacity="0.49411764705882355" d="M 526.5 14 L 529 14.5 L 526.5 15 L 526.5 14 Z "></path><path fill="rgb(255,255,255)" stroke="rgb(255,255,255)" stroke-width="1" opacity="0.49411764705882355" d="M 530.5 15 L 553.5 21 L 555.5 23 L 564.5 25 L 574.5 30 L 577.5 30 L 590.5 37 L 594 37 Q 595.1 39.7 592.5 39 L 560.5 25 L 532.5 17 L 530.5 15 Z "></path><path fill="rgb(255,255,255)" stroke="rgb(255,255,255)" stroke-width="1" opacity="0.49411764705882355" d="M 595.5 39 L 613.5 47 L 645.5 66 L 651.5 71 L 654 71 Q 652.9 73.7 655.5 73 L 658 74 Q 656.8 77 660.5 76 L 677 88 Q 675.9 90.7 678.5 90 L 689 98 Q 687.9 100.7 690.5 100 L 696 104 L 697.5 107 L 708 115 L 712.5 121 L 715 122.5 L 717.5 126 Q 719.8 125.3 719 127.5 L 723 130 L 727 137 L 731 139.5 L 736.5 147 Q 738.8 146.3 738 148.5 Q 765.6 179.4 785.5 218 L 787 217.5 L 786 219.5 L 798 241.5 L 798 245 L 800 245.5 L 800 247.5 L 810 273.5 L 813 277.5 L 812 279.5 L 814 281.5 L 814 284.5 L 817 290.5 L 817 292.5 L 828 333.5 L 828 335.5 L 830 343.5 L 830 345.5 L 831 347.5 L 829 348 L 824 320.5 L 813 282.5 Q 801.4 249.6 786 220.5 Q 754 161.5 707.5 117 Q 705.3 117.8 706 115.5 L 692.5 103 L 686 99 Q 687.1 96.3 684.5 97 L 666.5 82 L 646.5 68 L 614.5 49 L 596.5 41 L 595.5 39 Z "></path><path fill="rgb(255,255,255)" stroke="rgb(255,255,255)" stroke-width="1" opacity="0.49411764705882355" d="M 135 108 L 138 108.5 L 122.5 123 L 121 123 L 121 124.5 L 87 162.5 L 63.5 196 L 63 194.5 Q 66.7 193.2 66 189 Q 68.7 190.1 68 187.5 L 77 173 Q 79.7 174.1 79 171.5 L 92.5 154 Q 94.8 154.8 94 152.5 L 95 150 L 98 148.5 Q 96.9 145.2 99.5 146 L 102.5 142 Q 104.8 142.8 104 140.5 L 108 135 L 112 132.5 Q 111.3 130.3 113.5 131 L 116.5 127 Q 118.8 127.8 118 125.5 L 125 120 L 127.5 116 Q 129.8 116.8 129 114.5 L 135 109.5 L 135 108 Z "></path><path fill="rgb(255,255,255)" stroke="rgb(255,255,255)" stroke-width="1" opacity="0.49411764705882355" d="M 61 197 L 63 197.5 L 47 224.5 L 33 253.5 L 17.5 297 L 17 294.5 L 19 285 Q 22.3 286.3 21 281.5 L 24 275.5 L 25 269.5 L 30 260.5 L 30 257.5 L 35 248.5 L 35 245 Q 38.3 246.3 37 241.5 L 47 221.5 L 56 207.5 L 56 205 Q 59 206.3 58 202.5 Q 61.7 201.2 61 197 Z "></path><path fill="rgb(255,255,255)" stroke="rgb(255,255,255)" stroke-width="1" opacity="0.49411764705882355" d="M 16.5 298 L 17 300.5 L 16 300.5 L 16.5 298 Z "></path><path fill="rgb(255,255,255)" stroke="rgb(255,255,255)" stroke-width="1" opacity="0.49411764705882355" d="M 15.5 302 L 16 304.5 L 15 304.5 L 15.5 302 Z "></path><path fill="rgb(255,255,255)" stroke="rgb(255,255,255)" stroke-width="1" opacity="0.49411764705882355" d="M 14.5 306 L 15 308.5 L 14 308.5 L 14.5 306 Z "></path><path fill="rgb(255,255,255)" stroke="rgb(255,255,255)" stroke-width="1" opacity="0.49411764705882355" d="M 13.5 310 L 14 312.5 L 13 312.5 L 13.5 310 Z "></path><path fill="rgb(255,255,255)" stroke="rgb(255,255,255)" stroke-width="1" opacity="0.49411764705882355" d="M 12.5 314 L 13 316.5 L 12 316.5 L 12.5 314 Z "></path><path fill="rgb(255,255,255)" stroke="rgb(255,255,255)" stroke-width="1" opacity="0.49411764705882355" d="M 11.5 318 L 12 320.5 L 11 320.5 L 11.5 318 Z "></path><path fill="rgb(255,255,255)" stroke="rgb(255,255,255)" stroke-width="1" opacity="0.49411764705882355" d="M 10.5 322 L 11 324.5 L 10 324.5 L 10.5 322 Z "></path><path fill="rgb(255,255,255)" stroke="rgb(255,255,255)" stroke-width="1" opacity="0.49411764705882355" d="M 8.5 331 L 9 333.5 L 8 333.5 L 8.5 331 Z "></path><path fill="rgb(255,255,255)" stroke="rgb(255,255,255)" stroke-width="1" opacity="0.49411764705882355" d="M 7.5 335 L 8 337.5 L 7 337.5 L 7.5 335 Z "></path><path fill="rgb(255,255,255)" stroke="rgb(255,255,255)" stroke-width="1" opacity="0.49411764705882355" d="M 6.5 339 L 7 341.5 L 6 341.5 L 6.5 339 Z "></path><path fill="rgb(255,255,255)" stroke="rgb(255,255,255)" stroke-width="1" opacity="0.49411764705882355" d="M 5.5 343 L 6 348.5 L 3 360.5 L 3 362.5 L 2.5 367 L 2 359.5 L 5.5 343 Z "></path><path fill="rgb(255,255,255)" stroke="rgb(255,255,255)" stroke-width="1" opacity="0.49411764705882355" d="M 829.5 349 L 831 350.5 L 832 362.5 L 834 369.5 L 834 371.5 L 835 382.5 L 833 381.5 L 831 356.5 L 829.5 349 Z "></path><path fill="rgb(255,255,255)" stroke="rgb(255,255,255)" stroke-width="1" opacity="0.49411764705882355" d="M 1 368 L 3 368.5 L 2 369.5 L 2 378.5 L 0.5 387 L 0 376.5 L 1 374.5 L 0 372.5 L 1 368 Z "></path><path fill="rgb(255,255,255)" stroke="rgb(255,255,255)" stroke-width="1" opacity="0.49411764705882355" d="M 833.5 384 L 835 384.5 L 835 397.5 L 834 397.5 L 834 385.5 L 833.5 384 Z "></path><path fill="rgb(255,255,255)" stroke="rgb(255,255,255)" stroke-width="1" opacity="0.49411764705882355" d="M 834.5 439 L 835 455 Q 832 456.3 833 452.5 L 834 451.5 L 834.5 439 Z "></path><path fill="rgb(255,255,255)" stroke="rgb(255,255,255)" stroke-width="1" opacity="0.49411764705882355" d="M 0.5 448 L 4 482.5 L 7 493.5 L 7 495.5 L 12 520.5 L 11 520.5 L 4 491.5 L 5 489.5 L 2 478.5 L 3 476.5 L 1 470.5 L 2 468.5 L 0 461.5 L 1 459.5 L 0 458.5 L 0.5 448 Z "></path><path fill="rgb(255,255,255)" stroke="rgb(255,255,255)" stroke-width="1" opacity="0.49411764705882355" d="M 833.5 456 L 835 458.5 L 832.5 471 L 832 464.5 L 833.5 456 Z "></path><path fill="rgb(255,255,255)" stroke="rgb(255,255,255)" stroke-width="1" opacity="0.49411764705882355" d="M 831.5 472 L 832 479.5 L 831 482.5 L 831 484.5 L 828.5 496 L 828 490.5 L 831 479.5 L 830 477.5 L 831.5 472 Z "></path><path fill="rgb(255,255,255)" stroke="rgb(255,255,255)" stroke-width="1" opacity="0.49411764705882355" d="M 827.5 497 L 828 499.5 L 827 499.5 L 827.5 497 Z "></path><path fill="rgb(255,255,255)" stroke="rgb(255,255,255)" stroke-width="1" opacity="0.49411764705882355" d="M 826.5 501 L 827 503.5 L 826 503.5 L 826.5 501 Z "></path><path fill="rgb(255,255,255)" stroke="rgb(255,255,255)" stroke-width="1" opacity="0.49411764705882355" d="M 824.5 510 L 825 512.5 L 824 512.5 L 824.5 510 Z "></path><path fill="rgb(255,255,255)" stroke="rgb(255,255,255)" stroke-width="1" opacity="0.49411764705882355" d="M 823.5 514 L 824 516.5 L 823 516.5 L 823.5 514 Z "></path><path fill="rgb(255,255,255)" stroke="rgb(255,255,255)" stroke-width="1" opacity="0.49411764705882355" d="M 822.5 518 L 823 520.5 L 822 520.5 L 822.5 518 Z "></path><path fill="rgb(255,255,255)" stroke="rgb(255,255,255)" stroke-width="1" opacity="0.49411764705882355" d="M 11.5 522 Q 13.8 521.3 13 523.5 L 23 555.5 L 22 555.5 L 16 539.5 L 14 529.5 L 12 526.5 L 12 524.5 L 11.5 522 Z "></path><path fill="rgb(255,255,255)" stroke="rgb(255,255,255)" stroke-width="1" opacity="0.49411764705882355" d="M 821.5 522 L 822 524.5 L 821 524.5 L 821.5 522 Z "></path><path fill="rgb(255,255,255)" stroke="rgb(255,255,255)" stroke-width="1" opacity="0.49411764705882355" d="M 820.5 526 L 821 528.5 L 820 528.5 L 820.5 526 Z "></path><path fill="rgb(255,255,255)" stroke="rgb(255,255,255)" stroke-width="1" opacity="0.49411764705882355" d="M 819.5 530 L 820 532.5 L 819 532.5 L 819.5 530 Z "></path><path fill="rgb(255,255,255)" stroke="rgb(255,255,255)" stroke-width="1" opacity="0.49411764705882355" d="M 818.5 534 L 819 536.5 L 818 536.5 L 818.5 534 Z "></path><path fill="rgb(255,255,255)" stroke="rgb(255,255,255)" stroke-width="1" opacity="0.49411764705882355" d="M 817.5 538 L 818 540.5 L 816 548.5 L 814 550.5 Q 814.5 556 811.5 558 L 811 556.5 L 817.5 538 Z "></path><path fill="rgb(255,255,255)" stroke="rgb(255,255,255)" stroke-width="1" opacity="0.49411764705882355" d="M 22.5 557 Q 24.8 556.3 24 558.5 L 40 597.5 L 63 639.5 L 90 677.5 L 118 708.5 L 118 710 L 122 712.5 Q 121.3 714.8 123.5 714 L 126 718 L 127.5 718 L 146.5 736 L 153 740 Q 151.9 742.7 154.5 742 Q 181 764.5 212.5 782 L 235.5 794 L 260 804.5 L 257.5 805 L 201 777 Q 202.3 774 198.5 775 L 185 767 Q 186.3 764 182.5 765 L 175.5 759 L 173 759 L 171.5 756 L 169 756 Q 170.1 753.3 167.5 754 L 165 753 Q 166.1 750.3 163.5 751 L 150 741 Q 151.1 738.3 148.5 739 L 142 733.5 Q 142.8 731.3 140.5 732 L 138 731 L 136.5 728 Q 134.3 728.8 135 726.5 L 131 723.5 Q 131.8 721.3 129.5 722 L 111 704.5 Q 113.3 703.2 110.5 702 L 108 700.5 L 95 684 Q 92.3 685.1 93 682.5 L 91 682.5 Q 93.5 681 90 679.5 L 79 663 Q 76.3 664.1 77 661.5 L 64 643.5 L 64 641.5 L 58 633.5 L 43 606.5 L 29 575.5 L 22.5 557 Z "></path><path fill="rgb(255,255,255)" stroke="rgb(255,255,255)" stroke-width="1" opacity="0.49411764705882355" d="M 810.5 559 L 811 561.5 L 807 572.5 L 805 574.5 L 805 577.5 L 798.5 590 L 798 588.5 L 810.5 559 Z "></path><path fill="rgb(255,255,255)" stroke="rgb(255,255,255)" stroke-width="1" opacity="0.49411764705882355" d="M 797.5 591 L 798 593.5 L 784 618.5 L 782 624.5 L 772 639.5 L 772 642 Q 769.3 640.9 770 643.5 L 761 658 Q 758.3 659.1 759 656.5 L 777 630.5 L 797.5 591 Z "></path><path fill="rgb(255,255,255)" stroke="rgb(255,255,255)" stroke-width="1" opacity="0.49411764705882355" d="M 757 659 L 759 659.5 L 754.5 666 L 753 665.5 L 757 659 Z "></path><path fill="rgb(255,255,255)" stroke="rgb(255,255,255)" stroke-width="1" opacity="0.49411764705882355" d="M 752.5 667 L 753 669 Q 750.3 667.9 751 670.5 L 747 677 L 744 678.5 L 737 689 Q 734.3 687.9 735 690.5 L 731 693 L 723 704 L 719 706.5 L 717 709.5 L 712 713.5 Q 712.8 715.8 710.5 715 L 707.5 719 L 704 721.5 Q 704.8 723.8 702.5 723 L 697 727 L 694.5 731 L 688 735.5 Q 688.8 737.8 686.5 737 L 668.5 752 L 665 753 Q 666.1 755.7 663.5 755 L 642.5 770 L 611.5 788 L 557.5 812 L 555.5 812 L 535.5 819 L 535 817 L 544.5 815 L 574.5 804 L 599.5 793 L 635.5 773 Q 683.5 743.5 721 703.5 L 722.5 701 L 725 699.5 L 739 682 Q 741.7 683.1 741 680.5 L 748 671 Q 750.7 672.1 750 669.5 L 752.5 667 Z "></path><path fill="rgb(255,255,255)" stroke="rgb(255,255,255)" stroke-width="1" opacity="0.49411764705882355" d="M 261.5 805 L 276 810.5 L 273.5 811 L 262.5 807 L 261.5 805 Z "></path><path fill="rgb(255,255,255)" stroke="rgb(255,255,255)" stroke-width="1" opacity="0.49411764705882355" d="M 277 811 L 301 818.5 L 298.5 819 Q 295.6 816.4 289.5 817 L 284.5 814 L 277 813 L 277 811 Z "></path><path fill="rgb(255,255,255)" stroke="rgb(255,255,255)" stroke-width="1" opacity="0.49411764705882355" d="M 532.5 818 L 534 818.5 L 509.5 826 L 507.5 826 L 504.5 827 L 502.5 827 L 500.5 828 L 498.5 828 Q 493.2 827.2 491.5 830 L 489.5 829 L 478.5 832 L 476.5 832 Q 471.7 830.7 470.5 833 L 468.5 833 Q 463 831.5 461.5 834 L 459.5 834 Q 454.7 832.8 453.5 835 L 450.5 834 L 449.5 835 L 431.5 835 L 431.5 834 L 445.5 834 L 446.5 833 L 448.5 834 L 449.5 833 L 482.5 830 L 502.5 825 L 512.5 824 L 532.5 818 Z "></path><path fill="rgb(255,255,255)" stroke="rgb(255,255,255)" stroke-width="1" opacity="0.49411764705882355" d="M 302.5 819 L 305 819.5 L 302.5 820 L 302.5 819 Z "></path><path fill="rgb(255,255,255)" stroke="rgb(255,255,255)" stroke-width="1" opacity="0.49411764705882355" d="M 306.5 820 L 309 820.5 L 306.5 821 L 306.5 820 Z "></path><path fill="rgb(255,255,255)" stroke="rgb(255,255,255)" stroke-width="1" opacity="0.49411764705882355" d="M 310.5 821 L 313 821.5 L 310.5 822 L 310.5 821 Z "></path><path fill="rgb(255,255,255)" stroke="rgb(255,255,255)" stroke-width="1" opacity="0.49411764705882355" d="M 314.5 822 L 317 822.5 L 314.5 823 L 314.5 822 Z "></path><path fill="rgb(255,255,255)" stroke="rgb(255,255,255)" stroke-width="1" opacity="0.49411764705882355" d="M 318.5 823 L 321 823.5 L 318.5 824 L 318.5 823 Z "></path><path fill="rgb(255,255,255)" stroke="rgb(255,255,255)" stroke-width="1" opacity="0.49411764705882355" d="M 322.5 824 L 325 824.5 L 322.5 825 L 322.5 824 Z "></path><path fill="rgb(255,255,255)" stroke="rgb(255,255,255)" stroke-width="1" opacity="0.49411764705882355" d="M 331.5 826 L 334 826.5 L 331.5 827 L 331.5 826 Z "></path><path fill="rgb(255,255,255)" stroke="rgb(255,255,255)" stroke-width="1" opacity="0.49411764705882355" d="M 335.5 827 L 363 831.5 L 355.5 832 L 350.5 830 L 347.5 831 L 335.5 828 L 335.5 827 Z "></path><path fill="rgb(255,255,255)" stroke="rgb(255,255,255)" stroke-width="1" opacity="0.49411764705882355" d="M 364.5 832 L 372.5 833 L 374.5 833 L 400 834.5 L 380.5 835 L 370.5 833 L 368.5 834 L 364.5 833 L 364.5 832 Z "></path><path fill="rgb(0,0,0)" stroke="rgb(0,0,0)" stroke-width="1" opacity="0" d="M 0 0 L 381 0.5 L 365.5 3 L 363.5 3 Q 358.8 1.8 357.5 4 L 355.5 3 L 344.5 6 L 342.5 6 L 339.5 7 L 337.5 7 L 324.5 9 L 309.5 14 L 307.5 14 L 294.5 17 L 282.5 22 Q 281 19.5 279.5 23 Q 266.1 25.6 256.5 32 Q 255 29.5 253.5 33 L 227.5 44 L 224.5 47 L 211.5 53 L 185 69 Q 186.3 72 182.5 71 L 169 80 Q 170.1 82.7 167.5 82 L 155 91.5 Q 155.8 93.8 153.5 93 L 138 106.5 L 138 108 Q 134.2 106.5 135 109.5 L 129 114.5 Q 129.8 116.8 127.5 116 L 125 120 L 118 125.5 Q 118.8 127.8 116.5 127 L 113.5 131 Q 111.3 130.3 112 132.5 L 108 135 L 104 142 L 101 143.5 L 99.5 146 Q 96.9 145.2 98 148.5 L 95 150 L 94 154 L 91 155.5 L 79 173 Q 76.3 171.9 77 174.5 L 68 189 Q 65 187.8 66 191.5 Q 62.2 192.7 63 197 Q 60 195.8 61 199.5 Q 57.2 200.8 58 205 Q 55 203.8 56 207.5 L 47 221.5 L 37 241.5 L 37 245 Q 33.7 243.7 35 248.5 L 25 269.5 L 21 285 Q 17.7 283.7 19 288.5 L 3 351.5 L 2 367.5 L 0.5 372 L 0 0 Z "></path><path fill="rgb(0,0,0)" stroke="rgb(0,0,0)" stroke-width="1" opacity="0" d="M 450.5 0 L 453 0.5 L 450.5 1 L 450.5 0 Z "></path><path fill="rgb(0,0,0)" stroke="rgb(0,0,0)" stroke-width="1" opacity="0" d="M 455.5 0 L 835 0 L 835 379.5 L 834 379.5 L 834 371.5 L 833 370.5 L 833 368.5 L 832 355.5 L 830 348.5 L 830 346.5 L 829 344.5 L 830 342.5 L 827 334.5 L 827 332.5 L 821 304.5 L 816 291.5 L 816 289.5 L 812 278.5 Q 814.5 277 811 275.5 L 802 250.5 L 799 246.5 L 799.5 245 Q 796.5 245.9 798 241.5 L 771 192.5 L 738 147 L 735 145.5 L 728.5 137 Q 726.3 137.8 727 135.5 L 723 130 L 719 127.5 Q 719.8 125.3 717.5 126 L 713.5 121 L 708 116.5 Q 708.8 114.3 706.5 115 L 696 105.5 Q 696.8 103.3 694.5 104 L 689 100 Q 690.1 97.3 687.5 98 L 677 90 Q 678.1 87.3 675.5 88 L 660.5 76 L 658 76 Q 659.1 73.3 656.5 74 L 654 73 Q 655.3 70 651.5 71 L 645.5 66 L 613.5 47 L 597.5 39 L 594 39 Q 595.3 35.7 590.5 37 L 577.5 30 L 571.5 29 L 569.5 27 L 555.5 23 L 553.5 21 L 546.5 20 L 544.5 18 L 491.5 5 Q 483.1 5.9 478.5 3 L 475.5 4 L 466.5 1 L 463.5 2 L 460.5 1 L 458.5 1 Q 454.5 1.8 455.5 0 Z "></path><path fill="rgb(0,0,0)" stroke="rgb(0,0,0)" stroke-width="1" opacity="0" d="M 410.5 277 L 412.5 278 L 413.5 277 L 423.5 277 L 424.5 278 L 436.5 278 L 437.5 279 L 448.5 280 L 473.5 288 L 500.5 303 L 527 326.5 Q 538.5 338.5 545 355.5 L 544.5 357 Q 547.1 356.2 546 359.5 L 550 367.5 L 557 392.5 L 558 406.5 L 559 407.5 L 559 427.5 L 554 454.5 Q 549.1 471.6 541 485.5 Q 527.7 507.7 508.5 524 Q 492.4 537.4 471.5 546 L 443.5 554 L 415.5 556 L 413.5 555 L 411.5 555 L 400.5 555 L 390.5 553 L 374.5 549 L 362.5 544 Q 333.6 530.9 314 508.5 Q 297.5 490.4 288 465.5 L 282 444.5 L 279 420.5 L 280 418.5 L 279 415.5 L 279 413.5 L 282 387.5 L 288 367.5 Q 297.4 343.7 312 326 Q 314.7 327.1 314 324.5 Q 331.8 303.8 357.5 291 L 384.5 281 L 401.5 278 L 409.5 278 L 410.5 277 Z M 404 341 L 403 344 L 404 344 L 404 341 Z M 500 472 L 499 475 L 500 475 L 500 472 Z "></path><path fill="rgb(0,0,0)" stroke="rgb(0,0,0)" stroke-width="1" opacity="0" d="M 834.5 459 L 835 835 L 454 834.5 L 460.5 833 L 462.5 833 Q 468 834.5 469.5 832 L 471.5 832 Q 476.3 833.2 477.5 831 L 479.5 831 L 490.5 829 L 492.5 829 L 499.5 827 L 501.5 827 L 503.5 826 L 505.5 826 L 508.5 825 L 510.5 825 L 531.5 820 L 534.5 818 L 536.5 818 L 548.5 815 L 556.5 811 L 558.5 811 L 575.5 805 L 611.5 788 L 632.5 775 L 634.5 775 L 665 755 Q 663.9 752.3 666.5 753 L 688 737 L 689.5 734 L 697 728.5 Q 696.3 726.3 698.5 727 L 704 723 L 706.5 719 L 709 717.5 L 710.5 715 Q 712.8 715.8 712 713.5 L 717 709.5 L 719 706.5 L 723 704 L 731 693 L 735 690.5 L 737 687.5 L 745.5 677 Q 747.8 677.8 747 675.5 L 751 669 L 753 669 Q 751.5 665.2 754.5 666 L 759 658 Q 761.7 659.1 761 656.5 L 770 642 Q 773 643.3 772 639.5 L 790 609.5 L 798 593.5 L 798 590.5 L 800 588.5 L 803 579.5 L 805 577.5 L 808 567.5 L 810 565.5 L 811 558.5 L 813 556.5 L 814 550.5 L 817 545.5 L 817 541.5 L 832 483.5 L 831 480.5 L 832 479.5 L 832 471.5 Q 834.9 466.9 834.5 459 Z "></path><path fill="rgb(0,0,0)" stroke="rgb(0,0,0)" stroke-width="1" opacity="0" d="M 0.5 463 L 2 469.5 L 2 471.5 L 3 477.5 L 3 479.5 L 5 490.5 L 5 492.5 Q 6.6 508.9 12 521.5 L 12 523.5 L 13 525.5 L 13 527.5 L 18 545.5 L 23 556.5 L 23 558.5 L 29 575.5 L 43 606.5 L 58 633.5 L 64 641.5 L 64 643.5 L 74 656.5 L 77 663 Q 79.7 661.9 79 664.5 L 93 684 Q 95.7 682.9 95 685.5 L 109.5 702 L 112 703.5 L 111.5 705 L 129.5 722 L 131 722 L 132.5 725 L 135 726.5 Q 134.3 728.8 136.5 728 L 138 731 L 142 732 L 143.5 735 L 150 739 Q 148.9 741.7 151.5 741 L 165 751 Q 163.9 753.7 166.5 753 L 169 754 Q 167.8 757 171.5 756 L 173 759 L 175.5 759 L 182.5 765 L 185 765 Q 183.9 767.7 186.5 767 L 198.5 775 L 201 775 Q 199.9 777.7 202.5 777 L 213.5 784 L 245.5 800 L 248.5 800 L 254.5 804 L 260.5 805 L 269.5 810 L 277 811 Q 275.7 814.3 280.5 813 L 289.5 817 L 293.5 817 L 349.5 831 L 351.5 831 L 363.5 832 L 369.5 834 L 371.5 834 L 380 834.5 L 0 835 L 0.5 463 Z "></path><path fill="rgb(0,0,0)" stroke="rgb(0,0,0)" stroke-width="1" opacity="0" d="M 450.5 834 L 453 834.5 L 450.5 835 L 450.5 834 Z "></path><path fill="rgb(255,255,255)" stroke="rgb(255,255,255)" stroke-width="1" opacity="0.996078431372549" d="M 400.5 0 L 403.5 1 L 405.5 0 L 407.5 0 L 410.5 1 L 411.5 0 L 421.5 0 L 423.5 1 L 425.5 0 L 427.5 0 L 433.5 1 L 435.5 1 L 459.5 2 L 468.5 4 L 476.5 4 L 481.5 6 L 483.5 5 L 499.5 9 L 505.5 9 L 549.5 21 L 594.5 39 L 614.5 49 L 646.5 68 L 686 97 Q 684.9 99.7 687.5 99 L 706 115.5 Q 705.3 117.8 707.5 117 Q 754 161.5 786 220.5 Q 801.4 249.6 813 282.5 L 824 320.5 L 826 334.5 L 828 339.5 L 828 344.5 L 830 348.5 L 829 350.5 L 831 356.5 L 834 383.5 L 834 385.5 L 834 397.5 L 835 398.5 L 835 434.5 L 835 436.5 L 833 454.5 L 833 456.5 L 832 471.5 L 830 478.5 L 830 480.5 L 828 496.5 L 818 537.5 L 806 571.5 L 798 590.5 L 781 623.5 L 767 646.5 L 759 656.5 L 759 659 Q 756.3 657.9 757 660.5 L 750 671 Q 747.3 669.9 748 672.5 L 741 682 Q 738.3 680.9 739 683.5 L 723.5 701 L 721 702.5 L 702.5 722 Q 648.5 773 574.5 804 L 544.5 815 L 512.5 824 L 502.5 825 L 482.5 830 L 475.5 830 L 468.5 832 L 458.5 832 L 447.5 834 L 445.5 834 L 431.5 834 L 430.5 835 L 428.5 834 L 425.5 835 L 423.5 835 L 404.5 835 L 402.5 834 L 400.5 835 L 399.5 834 L 383.5 834 L 373.5 832 L 371.5 833 L 370.5 832 L 363.5 832 L 357.5 830 L 334.5 827 L 301.5 819 L 298.5 817 L 288.5 815 L 255.5 803 L 212.5 782 Q 180.6 763.6 153 742 Q 154.1 739.3 151.5 740 L 127.5 718 L 126 718 L 123.5 714 Q 121.3 714.8 122 712.5 L 118 710 L 118 708.5 L 99 688.5 L 75 657.5 L 46 609.5 L 23 556.5 L 14 528.5 L 14 524.5 L 12 521.5 L 12 517.5 L 6 494.5 L 6 492.5 L 4 482.5 L 4 475.5 L 3 474.5 L 3 467.5 L 2 466.5 L 1 448.5 L 0 447.5 L 0 445.5 L 0 387.5 L 1 386.5 L 2 369.5 L 3 368.5 L 3 366.5 L 4 361.5 L 3 359.5 L 17 297.5 Q 26 267 39 240.5 L 57 206.5 L 73 181.5 L 100 146.5 L 121 124.5 L 121 123 L 122.5 123 L 138 108.5 Q 137.3 106.3 139.5 107 Q 162.7 84.7 190.5 67 L 192.5 67 L 196.5 63 L 198.5 63 L 215.5 52 L 241.5 39 L 264.5 29 L 299.5 17 L 335.5 8 L 366.5 3 L 368.5 3 L 385.5 2 L 386.5 1 L 399.5 1 L 400.5 0 Z M 407 2 L 406 3 L 393 3 L 392 4 L 390 3 Q 388 6 383 4 L 381 4 L 379 5 L 377 4 L 362 7 L 360 6 L 327 12 L 323 14 L 304 18 L 302 18 L 300 20 L 291 22 L 289 22 Q 287 25 282 25 L 280 25 L 274 28 L 272 28 L 268 31 L 253 36 L 251 38 L 248 38 L 243 41 L 241 41 L 231 46 Q 229 49 228 47 L 225 50 L 219 52 L 211 58 L 197 65 L 188 72 L 186 72 L 170 84 Q 167 83 168 86 L 160 91 L 158 94 L 156 95 Q 153 94 154 97 L 140 109 Q 137 108 138 111 L 133 115 Q 134 117 132 116 L 106 143 Q 107 145 104 144 L 76 181 L 60 206 L 41 242 L 26 278 L 26 281 L 17 307 L 8 348 L 8 354 L 5 368 L 4 388 L 3 389 L 3 418 L 2 419 L 3 420 L 4 455 L 5 456 L 5 465 L 6 466 L 9 492 L 17 527 L 28 561 Q 58 638 109 694 L 111 697 Q 140 729 176 754 L 206 774 L 246 795 L 278 808 L 326 822 L 345 826 L 351 826 L 356 828 L 372 829 L 381 831 L 393 831 L 394 832 L 445 832 L 446 831 L 458 831 L 459 830 L 475 829 L 513 822 L 560 808 L 594 794 L 627 777 Q 659 758 687 734 Q 689 735 688 732 L 696 726 Q 698 727 697 725 L 701 722 L 702 720 L 714 709 Q 713 706 716 707 L 717 705 L 720 703 L 721 701 L 724 699 L 728 693 L 731 691 L 732 689 L 735 687 L 737 682 L 741 679 Q 740 674 744 676 L 744 674 L 747 670 L 750 668 Q 748 666 752 664 Q 754 665 753 661 L 756 659 L 755 658 Q 756 655 758 657 L 761 649 L 763 649 L 766 642 L 769 641 L 768 639 L 782 615 Q 781 611 784 612 Q 784 605 789 601 Q 788 598 791 599 L 790 598 L 796 587 Q 795 583 798 584 L 798 581 L 803 569 L 803 567 L 806 563 L 811 548 L 813 548 L 812 545 L 814 545 L 814 543 L 813 543 L 814 541 L 813 540 L 815 540 L 814 538 L 817 536 L 816 535 L 816 532 Q 819 533 818 530 L 816 530 L 818 528 L 820 514 L 822 510 L 821 508 Q 824 506 822 505 L 823 503 L 822 501 L 824 499 L 825 492 L 823 492 L 826 489 L 827 483 L 825 483 L 827 481 L 829 473 L 829 467 L 831 465 L 830 462 L 830 460 L 831 456 L 831 458 L 832 458 L 831 455 L 831 446 L 832 445 L 831 443 L 832 438 L 831 433 L 832 429 L 832 427 L 831 424 L 832 422 L 831 419 L 832 417 L 831 413 L 832 410 L 831 407 L 832 402 L 830 392 L 831 388 L 830 380 L 830 378 L 828 363 L 826 359 L 827 357 L 826 356 L 826 348 L 824 346 Q 825 338 822 335 L 822 333 L 820 327 L 820 325 Q 817 323 818 318 Q 814 316 817 315 L 816 310 L 816 308 L 814 302 L 814 300 L 810 286 L 810 284 L 807 278 L 808 276 L 805 272 L 805 268 L 803 266 L 800 257 L 798 254 L 797 256 L 798 257 L 795 255 L 793 248 L 791 247 L 792 251 L 793 252 L 788 243 L 787 245 L 782 236 L 781 238 L 776 230 L 775 230 L 782 247 L 780 247 L 784 259 L 782 257 L 781 258 L 778 257 L 779 260 L 778 265 L 780 264 L 779 266 L 780 268 L 780 270 L 774 262 L 773 262 L 774 267 L 773 270 L 775 277 L 776 278 L 774 275 L 771 273 L 769 268 L 767 271 L 767 273 L 766 275 L 761 272 L 762 275 L 760 275 L 752 260 L 750 259 L 756 277 L 756 278 L 754 275 L 753 278 L 751 277 Q 748 278 750 280 L 750 281 L 747 277 L 745 278 L 743 281 L 740 282 L 740 284 L 738 281 Q 735 280 736 284 L 730 286 L 723 273 L 721 272 L 726 287 L 722 285 L 723 288 L 723 290 L 722 288 Q 719 287 720 290 L 719 290 Q 720 286 717 287 L 716 290 L 717 292 L 717 294 L 716 293 L 713 291 L 711 294 L 712 297 L 713 298 L 711 296 Q 710 293 706 294 L 705 298 L 702 295 L 701 297 L 700 296 L 699 298 L 699 300 Q 700 302 698 301 L 696 302 Q 697 299 694 300 Q 688 296 686 289 L 685 289 L 690 302 Q 691 305 689 306 L 688 304 L 686 308 L 687 312 Q 684 313 685 311 L 681 307 L 680 311 L 678 309 L 677 312 L 677 314 L 674 312 L 673 314 L 670 311 L 669 311 Q 671 316 667 315 L 667 313 L 660 300 L 658 299 L 663 311 L 662 310 Q 659 309 660 312 L 656 311 Q 654 309 653 312 L 656 323 L 657 324 L 652 318 Q 653 315 650 316 L 651 320 L 651 322 L 648 320 L 646 318 L 644 317 L 645 323 L 646 324 L 642 319 L 640 318 L 642 326 L 640 326 L 639 322 L 634 314 L 632 313 L 635 320 L 635 324 L 635 326 L 636 330 L 636 332 L 634 330 L 633 330 L 631 326 L 630 329 L 627 328 L 626 330 L 624 328 L 622 327 L 623 329 L 623 332 L 622 331 Q 621 328 619 331 L 621 337 L 619 336 Q 620 333 618 334 L 618 336 L 616 336 L 617 340 L 617 342 L 607 326 L 606 326 L 610 336 L 608 336 L 609 340 L 607 340 L 608 344 L 609 345 L 607 343 L 605 342 L 606 348 L 605 348 Q 606 345 604 346 L 604 345 Q 603 342 602 344 L 600 343 L 599 345 L 598 343 L 595 341 L 595 345 L 598 353 L 598 356 L 594 352 L 595 350 L 594 350 L 592 348 L 591 348 L 593 355 L 593 357 Q 575 317 547 287 L 539 277 L 542 279 L 544 278 L 546 279 L 542 275 L 544 271 L 546 272 L 543 267 L 550 272 L 550 271 L 549 268 L 553 270 L 551 268 L 552 266 L 557 270 L 558 270 L 555 266 L 556 264 L 560 267 L 558 263 L 568 271 L 565 267 Q 566 264 563 265 L 558 258 L 560 257 L 564 261 L 563 258 L 565 257 L 564 255 L 564 253 L 569 256 L 568 253 L 571 255 L 574 258 L 572 254 Q 571 250 574 251 L 575 252 L 574 250 L 578 252 L 573 246 L 576 244 L 576 246 L 578 245 L 580 246 L 582 245 L 585 247 L 592 254 L 586 247 L 584 244 L 583 241 L 588 243 L 591 246 L 588 241 L 587 238 L 590 239 L 593 242 L 592 240 Q 591 236 595 237 L 597 239 L 597 237 L 593 232 L 592 229 L 600 235 L 600 234 L 602 234 L 602 232 L 604 232 L 606 227 L 612 232 L 602 220 L 604 220 L 606 219 L 604 214 L 607 215 L 608 213 L 612 214 L 610 212 L 611 210 L 617 215 L 618 215 Q 615 213 616 208 L 616 206 L 623 209 L 621 206 L 622 204 L 632 212 L 633 215 L 635 215 L 627 203 L 626 200 L 628 201 L 627 200 L 630 199 L 634 201 Q 636 202 635 200 Q 631 198 634 197 L 633 194 Q 636 193 635 196 Q 640 198 638 192 L 640 192 L 638 189 L 641 190 L 643 188 L 647 189 Q 649 188 647 187 L 649 187 L 650 187 L 649 183 L 649 181 L 651 182 Q 652 184 653 182 L 652 180 L 652 178 L 665 189 L 666 189 L 658 178 L 658 176 L 661 177 L 659 171 L 659 169 L 661 169 L 665 167 L 668 170 L 665 164 L 668 163 L 671 164 L 670 163 Q 669 157 673 159 L 672 154 Q 675 153 674 156 L 685 164 L 686 164 L 677 152 L 679 152 Q 681 153 680 151 L 684 145 L 682 140 L 681 137 L 691 143 L 692 144 L 691 139 L 689 139 L 690 135 L 690 133 L 698 140 L 702 140 L 699 138 L 702 136 L 707 140 Q 708 143 710 141 L 711 144 L 711 143 L 722 152 L 716 144 L 720 146 L 716 141 L 718 141 L 719 141 Q 717 136 716 139 L 716 138 L 713 134 L 716 135 L 716 134 L 714 130 L 718 134 Q 717 136 720 135 L 721 136 L 718 130 L 714 128 Q 715 124 711 126 L 711 123 L 710 123 L 707 119 L 706 119 L 687 101 Q 684 102 685 99 L 640 66 L 592 40 Q 588 41 589 38 L 586 38 L 577 33 L 566 30 L 564 28 L 546 23 L 544 21 L 540 21 L 533 18 L 529 18 L 512 13 L 466 5 L 447 4 L 446 3 L 425 3 L 424 2 L 421 3 L 419 3 L 416 2 L 414 3 L 412 2 L 410 3 L 407 2 Z M 718 136 L 719 138 Q 720 135 718 136 Z M 721 143 L 722 145 Q 723 142 721 143 Z M 721 146 Q 719 149 722 148 L 721 146 Z M 725 150 L 724 152 L 726 153 L 725 150 Z M 725 154 L 724 156 L 728 159 L 725 154 Z M 687 164 L 686 166 L 689 167 L 687 164 Z M 773 224 L 772 226 L 774 227 L 773 224 Z M 613 232 L 613 234 Q 612 236 615 235 L 614 234 Q 615 231 613 232 Z M 786 239 L 786 243 L 787 243 L 786 239 Z M 791 240 L 791 242 L 793 241 L 791 240 Z M 795 246 Q 793 249 796 248 L 795 246 Z M 712 288 L 711 291 L 712 291 L 712 288 Z "></path><path fill="rgb(255,255,255)" stroke="rgb(255,255,255)" stroke-width="1" opacity="0.996078431372549" d="M 404.5 273 L 416.5 276 L 418.5 275 L 420.5 276 L 426.5 274 L 440 276.5 L 439.5 278 L 444.5 277 L 444.5 278 L 437.5 279 Q 436 275.5 434.5 278 L 424.5 278 L 424 276 L 422.5 276 L 419.5 277 L 417.5 277 L 413 276 Q 414.1 278.7 411.5 278 L 411.5 276 L 409 276.5 L 409.5 278 L 400.5 277 L 400.5 279 L 396.5 278 Q 395.5 281 390.5 280 L 391.5 278 L 394.5 279 L 394.5 278 L 390 276.5 L 395.5 274 L 403.5 274 L 404.5 273 Z M 406 276 L 406 277 L 408 277 L 406 276 Z M 427 276 L 427 277 L 429 277 L 427 276 Z "></path><path fill="rgb(255,255,255)" stroke="rgb(255,255,255)" stroke-width="1" opacity="0.996078431372549" d="M 446.5 277 L 457 280.5 L 453.5 282 L 453.5 280 L 449.5 281 L 449.5 279 L 444.5 280 L 444.5 279 Q 447 279.7 446.5 277 Z "></path><path fill="rgb(255,255,255)" stroke="rgb(255,255,255)" stroke-width="1" opacity="0.996078431372549" d="M 387.5 279 L 388.5 281 L 386 280.5 L 387.5 279 Z "></path><path fill="rgb(255,255,255)" stroke="rgb(255,255,255)" stroke-width="1" opacity="0.996078431372549" d="M 382.5 281 L 384 281.5 L 376.5 284 L 377.5 282 L 382.5 281 Z "></path><path fill="rgb(255,255,255)" stroke="rgb(255,255,255)" stroke-width="1" opacity="0.996078431372549" d="M 458.5 281 Q 461.1 280.3 460 283 L 457 282.5 L 458.5 281 Z "></path><path fill="rgb(255,255,255)" stroke="rgb(255,255,255)" stroke-width="1" opacity="0.996078431372549" d="M 463.5 282 L 464 284 Q 469.2 282.3 468 286 L 461 283.5 L 463.5 282 Z "></path><path fill="rgb(255,255,255)" stroke="rgb(255,255,255)" stroke-width="1" opacity="0.996078431372549" d="M 372.5 284 L 375 284.5 L 367.5 287 L 367.5 286 L 372.5 284 Z "></path><path fill="rgb(255,255,255)" stroke="rgb(255,255,255)" stroke-width="1" opacity="0.996078431372549" d="M 471.5 285 L 472 287 L 476 287 Q 474.9 289.7 477.5 289 L 479.5 289 L 481 289.5 L 480.5 291 L 484 290 Q 482.8 293 486.5 292 Q 488.5 295.2 493 295 Q 491.9 297.7 494.5 297 L 505 304.5 L 505.5 306 L 506.5 305 L 509.5 308 L 527 321 Q 528.1 318.3 525.5 319 L 522 314.5 L 523.5 314 Q 542.3 330.7 552 356.5 L 550 355.5 L 546.5 349 L 546 351.5 L 548 353.5 L 556 379.5 Q 553.5 381 557 382.5 L 556 384.5 L 558 388.5 L 558 390.5 L 560 400.5 L 559 402.5 L 561 413.5 L 560 416.5 L 560 418.5 L 561 421.5 L 559.5 427 L 558 398.5 L 554 379.5 L 550 367.5 L 540 344.5 Q 532 330.5 520.5 320 L 500.5 303 Q 486.5 293 469 286.5 L 471.5 285 Z M 528 321 L 527 323 L 530 324 L 528 321 Z "></path><path fill="rgb(255,255,255)" stroke="rgb(255,255,255)" stroke-width="1" opacity="0.996078431372549" d="M 364.5 287 L 366 287.5 L 358.5 291 L 359.5 289 L 364.5 287 Z "></path><path fill="rgb(255,255,255)" stroke="rgb(255,255,255)" stroke-width="1" opacity="0.996078431372549" d="M 355.5 291 L 357 291.5 L 344.5 299 L 346.5 296 L 355.5 291 Z "></path><path fill="rgb(255,255,255)" stroke="rgb(255,255,255)" stroke-width="1" opacity="0.996078431372549" d="M 342.5 299 L 341.5 301 L 334.5 306 L 337.5 302 L 342.5 299 Z "></path><path fill="rgb(255,255,255)" stroke="rgb(255,255,255)" stroke-width="1" opacity="0.996078431372549" d="M 544.5 301 L 552 308.5 L 562 322.5 L 569 337.5 L 568 337.5 Q 558.4 317.6 544 302.5 L 544.5 301 Z "></path><path fill="rgb(255,255,255)" stroke="rgb(255,255,255)" stroke-width="1" opacity="0.996078431372549" d="M 332.5 306 L 328.5 311 L 314 324.5 L 312 327.5 L 308 330.5 L 319 317 L 323 314.5 Q 322.3 312.3 324.5 313 L 332.5 306 Z "></path><path fill="rgb(255,255,255)" stroke="rgb(255,255,255)" stroke-width="1" opacity="0.996078431372549" d="M 528.5 309 L 531 313 L 534 314.5 Q 547.4 328.6 555 348.5 L 554 348.5 Q 543.5 327 528 310.5 L 528.5 309 Z "></path><path fill="rgb(255,255,255)" stroke="rgb(255,255,255)" stroke-width="1" opacity="0.996078431372549" d="M 630.5 330 L 631 332.5 L 630 332.5 L 630.5 330 Z "></path><path fill="rgb(255,255,255)" stroke="rgb(255,255,255)" stroke-width="1" opacity="0.996078431372549" d="M 306 332 L 308 332.5 L 305 334.5 L 306 332 Z "></path><path fill="rgb(255,255,255)" stroke="rgb(255,255,255)" stroke-width="1" opacity="0.996078431372549" d="M 303 336 L 305 336.5 L 303 337.5 L 303 336 Z "></path><path fill="rgb(255,255,255)" stroke="rgb(255,255,255)" stroke-width="1" opacity="0.996078431372549" d="M 302.5 339 L 302 340.5 L 300.5 343 L 301 341.5 L 302.5 339 Z "></path><path fill="rgb(255,255,255)" stroke="rgb(255,255,255)" stroke-width="1" opacity="0.996078431372549" d="M 298 344 L 300 344.5 L 298 345.5 L 298 344 Z "></path><path fill="rgb(255,255,255)" stroke="rgb(255,255,255)" stroke-width="1" opacity="0.996078431372549" d="M 297.5 347 L 297 348.5 L 290.5 362 L 290 360.5 L 297.5 347 Z "></path><path fill="rgb(255,255,255)" stroke="rgb(255,255,255)" stroke-width="1" opacity="0.996078431372549" d="M 289.5 363 L 290 364.5 L 288.5 367 L 288 364.5 L 289.5 363 Z "></path><path fill="rgb(255,255,255)" stroke="rgb(255,255,255)" stroke-width="1" opacity="0.996078431372549" d="M 286.5 371 L 287 372.5 L 284.5 379 L 284 376.5 L 286.5 371 Z "></path><path fill="rgb(255,255,255)" stroke="rgb(255,255,255)" stroke-width="1" opacity="0.996078431372549" d="M 283.5 380 L 284 382.5 L 283 382.5 L 283.5 380 Z "></path><path fill="rgb(255,255,255)" stroke="rgb(255,255,255)" stroke-width="1" opacity="0.996078431372549" d="M 282.5 384 L 283 386.5 L 282 386.5 L 282.5 384 Z "></path><path fill="rgb(255,255,255)" stroke="rgb(255,255,255)" stroke-width="1" opacity="0.996078431372549" d="M 281.5 388 L 282 393.5 L 280.5 399 L 280 393.5 L 281.5 388 Z "></path><path fill="rgb(255,255,255)" stroke="rgb(255,255,255)" stroke-width="1" opacity="0.996078431372549" d="M 279.5 401 L 280 411 L 278 410.5 L 279 409.5 L 279.5 401 Z "></path><path fill="rgb(255,255,255)" stroke="rgb(255,255,255)" stroke-width="1" opacity="0.996078431372549" d="M 278 418 Q 281 417 280 420 Q 277 421 278 418 Z "></path><path fill="rgb(255,255,255)" stroke="rgb(255,255,255)" stroke-width="1" opacity="0.996078431372549" d="M 278.5 422 L 280 422.5 L 280 432.5 L 279 432.5 Q 279.8 424.3 278.5 422 Z "></path><path fill="rgb(255,255,255)" stroke="rgb(255,255,255)" stroke-width="1" opacity="0.996078431372549" d="M 558.5 428 L 560 430.5 L 559 433.5 L 559 435.5 L 557 445.5 L 557 447.5 L 550 472 Q 546.7 470.7 548 475.5 L 544 481.5 L 545 483.5 L 542 485 L 542 487.5 L 538.5 493 L 537 493 Q 538.5 496.7 535.5 496 Q 537.2 498 533.5 500 Q 531.3 499.3 532 501.5 L 527.5 508 L 524 510.5 L 519.5 516 Q 517.3 515.3 518 517.5 L 514 520 L 510.5 525 L 493.5 537 L 469.5 549 Q 468 546.5 466.5 550 L 447.5 555 L 445.5 554 Q 444 557.5 442.5 555 L 435.5 557 L 430.5 557 L 428.5 556 L 427.5 557 L 417.5 557 L 417.5 556 L 437.5 555 L 448.5 553 L 478.5 543 Q 507 529.5 526 506.5 Q 539.3 491.3 548 471.5 L 556 446.5 L 558.5 428 Z "></path><path fill="rgb(255,255,255)" stroke="rgb(255,255,255)" stroke-width="1" opacity="0.996078431372549" d="M 280.5 434 L 281 437.5 L 280 437.5 L 280.5 434 Z "></path><path fill="rgb(255,255,255)" stroke="rgb(255,255,255)" stroke-width="1" opacity="0.996078431372549" d="M 280.5 439 L 282 440.5 L 285 455.5 L 284 455.5 L 280.5 439 Z "></path><path fill="rgb(255,255,255)" stroke="rgb(255,255,255)" stroke-width="1" opacity="0.996078431372549" d="M 231.5 446 L 236.5 463 L 237.5 461 L 238 462.5 L 237 464.5 L 239 464.5 L 240.5 469 L 241 466.5 L 238 453.5 L 239 453.5 L 246 477.5 L 259 504.5 L 280 535.5 L 299 555.5 L 297 556.5 L 300.5 561 L 292.5 555 L 298.5 562 L 303 565.5 L 299.5 563 L 286.5 553 L 299.5 568 L 291.5 562 L 291 564 L 293 564 Q 291.9 566.7 294.5 566 L 294.5 567 L 284.5 560 L 292.5 570 L 286.5 566 L 285 566.5 Q 287.8 564.8 283.5 563 L 283 564.5 L 284.5 568 L 286 568.5 L 285.5 570 L 287 570.5 L 285.5 571 L 283.5 570 L 285.5 573 L 288.5 575 L 291.5 579 L 282 573 Q 283.1 570.3 280.5 571 L 260.5 552 L 260 553.5 L 274 571.5 L 272 572 L 272 575 Q 275 574 274 577 L 267 573 L 272 579.5 L 268.5 577 L 262.5 573 L 262 574.5 L 263.5 577 L 256.5 573 L 256 576 Q 258.7 574.9 258 577.5 L 263 583.5 L 259 581.5 L 261 584.5 L 260 585.5 L 264 589.5 L 265.5 592 L 273 598.5 L 271 599 Q 272.1 596.3 269.5 597 L 261.5 591 L 264.5 596 L 250 583.5 Q 250.8 581.3 248.5 582 L 246 578 L 243 576.5 L 236.5 569 L 236 570.5 L 252.5 589 Q 254.8 588.3 254 590.5 L 258 593 L 259.5 596 L 261 596.5 L 259.5 597 L 248.5 587 L 242.5 584 L 243 585.5 L 245 588.5 L 243.5 589 L 239.5 586 L 239 588 Q 241.7 586.9 241 589.5 L 247 597 L 256 604.5 L 254.5 604 L 251.5 602 L 245 597 L 245 595 L 242 595 Q 243.1 592.3 240.5 593 L 238.5 592 L 239 593.5 L 242 598.5 L 238.5 596 L 234.5 594 Q 230.3 595.7 233 597.5 L 235 600.5 L 230.5 597 L 229 597.5 L 231 602 Q 233.7 600.9 233 603.5 L 234.5 606 L 232 605 L 230.5 602 L 227.5 600 L 225.5 601 L 222.5 597 Q 220.3 597.8 221 595.5 L 215 590.5 L 236.5 617 Q 238.8 616.3 238 618.5 L 244 623.5 L 242 624 Q 243.1 621.3 240.5 622 Q 239 618.5 237.5 621 L 236 621.5 L 265 646.5 L 262.5 645 L 257.5 643 L 233 625 Q 234.1 622.3 231.5 623 L 228.5 621 L 233 626.5 Q 232.3 628.8 234.5 628 L 235.5 631 Q 238.1 630.2 237 633.5 L 231.5 629 L 228.5 627 L 226.5 628 L 225.5 626 L 227.5 627 L 224.5 623 L 223 626.5 L 231.5 636 L 228 634 L 229.5 637 L 233 639.5 Q 232.3 641.8 234.5 641 L 237.5 645 L 228 639 Q 229.1 636.3 226.5 637 L 222.5 633 L 217.5 632 L 194.5 609 L 194 610.5 Q 203 624 215 634.5 L 213.5 634 Q 210.9 633.3 212 636 Q 214.7 634.9 214 637.5 L 218 640.5 L 216.5 640 L 215 640.5 L 218 642 L 217.5 644 L 210.5 638 L 209 640.5 L 212.5 645 L 209 643 Q 210 640 207 641 L 208.5 644 L 213 647.5 L 211 648.5 L 213 649 L 215 652.5 L 212.5 651 L 205.5 646 L 205 647.5 Q 208.8 649.3 205.5 651 L 205.5 649 L 203 650.5 L 203.5 652 L 201.5 651 L 200 651.5 Q 200.8 649.3 198.5 650 L 196 648.5 L 200 653.5 L 200 655.5 Q 200.8 657.8 198.5 657 L 189 650 Q 190.1 647.3 187.5 648 L 185 646.5 L 191.5 655 L 193 655 L 193 657 Q 195.7 655.9 195 658.5 L 193.5 658 Q 191.3 658.8 192 656.5 L 189.5 655 L 189.5 657 L 187.5 657 L 164 635.5 L 162.5 633 L 162 634.5 L 172 648 Q 174.7 646.9 174 649.5 L 189.5 666 L 192 667.5 L 191.5 669 L 187 665.5 Q 187.8 663.3 185.5 664 L 184 663.5 L 184 665.5 L 188 671 Q 190.7 669.9 190 672.5 L 187.5 674 L 185 673 L 183.5 670 L 182 670.5 Q 182.8 667.9 179.5 669 L 187.5 678 Q 189.8 677.3 189 679.5 L 195 684.5 L 193.5 685 L 183 677 L 182.5 679 L 180.5 678 L 179.5 679 L 174.5 674 Q 172.3 673.3 173 675.5 L 177 678.5 Q 176.3 680.8 178.5 680 L 180 683 L 183 684.5 L 182.5 687 L 182 685 L 176 683 Q 177.1 680.3 174.5 681 L 168 675.5 L 177 686.5 L 175 686.5 L 177.5 691 L 179 690.5 Q 178.3 692.8 180.5 692 L 181.5 694 L 175 691 Q 176.1 688.3 173.5 689 L 162 680 L 162 678 Q 159.3 679.1 160 676.5 L 144.5 662 L 144 663.5 L 158 678.5 L 158 680 L 162 682.5 L 161.5 684 L 163 684.5 L 161.5 685 L 159 684 L 163.5 690 Q 165.8 689.3 165 691.5 L 169 694 L 170.5 697 L 172 697.5 L 170.5 698 L 157 687.5 Q 157.8 685.3 155.5 686 L 149.5 681 L 160.5 694 L 153.5 688 L 153 689.5 L 160 695 L 162.5 699 L 171 706.5 L 167.5 704 L 166.5 705 L 165 705.5 L 170 708.5 Q 169.3 710.8 171.5 710 L 174 711.5 L 173.5 713 L 177 714 L 179 717.5 L 177.5 717 L 172 714 Q 173.1 711.3 170.5 712 L 141.5 686 L 141 687.5 L 149 697.5 L 151 700.5 L 149 701 L 147.5 698 L 140 692.5 Q 140.8 690.3 138.5 691 L 136 690.5 L 134.5 687 L 130.5 690 L 128.5 690 L 125.5 688 L 120.5 683 L 119.5 684 L 114 679.5 L 109.5 674 L 108.5 675 L 102 669.5 L 109 678.5 L 104 674.5 L 100.5 670 L 100 671.5 L 107 680.5 L 105 679.5 L 100.5 674 L 100 675.5 L 107 683.5 L 104.5 682 Q 100.5 682.5 100 679.5 Q 67.5 642.5 46 594.5 Q 47.5 591.5 49 594.5 L 48 597.5 L 49 597.5 L 49.5 596 L 56.5 609 L 57 607.5 L 49 592.5 L 51 593.5 L 55.5 602 L 56 599.5 L 52 593.5 L 55 595.5 L 58.5 603 L 59 600.5 L 55 592.5 L 56 590.5 L 53 589.5 L 55 589.5 L 53.5 586 L 52 586.5 L 53 583.5 L 50 577.5 L 52 577.5 L 44 555.5 Q 46.5 554 43 552.5 L 43.5 549 L 46 549.5 L 45 553.5 L 46 553.5 L 46.5 552 L 51.5 560 L 52 556.5 L 50 556.5 L 51 554.5 L 49 550.5 L 49 546.5 L 45 532.5 L 47 533.5 L 49 541 Q 52.3 539.7 51 544.5 L 57.5 557 L 58 554.5 L 52 539.5 L 45 511.5 L 46 511.5 L 48.5 518 L 50 518.5 L 48 519.5 L 51 523.5 Q 48.5 525 52 526.5 L 54.5 535 L 55.5 532 L 57 532.5 L 55 525.5 L 57 526.5 L 57 529.5 L 61.5 541 L 63 536.5 L 61 536.5 L 64 535 L 67.5 546 L 69 542 L 67 541.5 L 68 539.5 L 63 522.5 L 64 522.5 Q 70.7 546.3 81.5 566 L 82 563.5 L 77 552.5 L 72 535.5 L 73 535.5 L 74.5 539 L 75 537.5 L 72 531.5 L 74 531 L 75.5 534 L 76 532.5 L 74 528.5 L 75 528.5 Q 74.2 531.5 78 530 L 76 526.5 L 77 523.5 L 76 520.5 L 78 519.5 L 77 521.5 Q 80.8 523.8 81.5 529 L 82 527 L 84 526.5 Q 81.7 525.2 83 520.5 L 83.5 519 L 81.5 520 L 81 518 L 83 517.5 L 82 512.5 L 84 513.5 L 91.5 532 L 92 529.5 L 87 513.5 Q 89.5 512 86 510.5 L 86.5 507 L 94 526 Q 96.7 527.1 96 524.5 L 92 508.5 L 93 508.5 L 107 546.5 L 112.5 557 L 113 554.5 Q 108.2 548.3 107 538.5 L 105 536.5 L 105 531.5 L 103 529.5 L 103 527.5 L 100 514.5 L 101 514.5 L 104.5 524 L 105 521.5 L 103 514.5 L 104 514.5 Q 103.9 520.1 107.5 522 L 108 519.5 L 106 515.5 L 106 513.5 L 105 511.5 L 106.5 512 L 110 512.5 L 108 513.5 L 111 515.5 L 111.5 517 L 112 514.5 L 109 506.5 L 111 507.5 L 114.5 517 L 115 514.5 L 114 512.5 L 115 512.5 L 116.5 517 L 117 513.5 L 116 510.5 L 116.5 509 Q 113.5 509.7 115 506 L 117 505.5 L 116 501.5 L 117 501.5 L 118.5 505 L 120 504.5 L 119 508.5 L 120 508.5 L 120.5 507 L 121.5 509 L 123 507.5 L 122 504.5 L 122.5 502 L 126.5 513 L 127 510.5 L 127 508.5 L 126 505.5 L 127.5 506 Q 129.8 505.3 129 507.5 L 131.5 512 L 132 509.5 L 129 498.5 L 130 498.5 L 131.5 503 L 133 502.5 L 132 505.5 L 133 508 Q 135.7 506.9 135 509.5 Q 139.5 524.5 147.5 536 L 148 534.5 L 138 507.5 L 139 504.5 L 134 484.5 L 136 485.5 L 137.5 491 L 139 490.5 L 142 494.5 L 140 494.5 L 141.5 497 Q 143.8 496.3 143 498.5 L 145.5 505 L 146 501.5 L 144 494.5 L 144 490.5 L 145 488.5 L 144.5 487 Q 147.1 486.2 146 489.5 L 148 495 L 150 494.5 L 148 486.5 Q 150.8 484.8 149 478.5 L 148 475.5 L 149 475.5 L 153 491.5 L 156.5 499 L 158 492.5 L 157 488.5 L 158 488.5 L 168 514.5 L 173.5 525 L 174 522.5 L 167 504.5 L 168 504.5 L 170.5 509 L 171 507.5 L 170 505.5 L 172 506.5 Q 171.3 508.8 173.5 508 L 173 506.5 L 171 497.5 L 172 497.5 L 175.5 504 L 176 500.5 L 174 495.5 L 174 493.5 L 174.5 491 L 177 495.5 L 178.5 498 L 180 498 L 180 502 Q 182.7 500.9 182 503.5 L 184.5 507 L 185 504.5 L 183 497.5 L 184 497.5 L 187.5 506 L 188 502.5 L 185 491.5 L 186 491.5 L 190.5 501 L 191 496.5 L 188 488.5 L 188 486.5 L 187 482.5 L 189 483.5 L 189 486.5 L 201.5 515 L 202 512.5 Q 193.9 499.1 191 480.5 L 192 480.5 L 192.5 482 L 193 479.5 L 190 468.5 L 190 462.5 L 191 462.5 L 191 466.5 L 198.5 489 L 199 486.5 L 198 483 L 203 486.5 L 204.5 489 Q 206.8 488.3 206 484.5 L 204 484.5 L 205 480.5 L 204 477.5 L 206 477.5 Q 205 473 207.5 472 L 208 474 L 210.5 473 L 212 476.5 L 213.5 479 Q 216.3 477.8 214 476.5 L 213 474.5 L 215 473.5 L 218 482.5 L 227.5 501 L 228 498.5 Q 220.4 485.1 218 466.5 L 219 462.5 L 218.5 461 L 225.5 476 L 227 473.5 L 225 470.5 L 227 464.5 L 226 460.5 L 228 461.5 L 229.5 465 L 230.5 460 L 232.5 464 L 233 460.5 L 231 451.5 L 231.5 446 Z M 150 496 L 149 499 L 150 499 L 150 496 Z M 118 517 L 117 520 L 118 520 L 118 517 Z M 85 530 L 83 532 L 84 534 L 85 532 L 85 530 Z M 77 531 L 77 532 L 79 532 L 77 531 Z M 93 532 L 92 535 L 93 535 L 93 532 Z M 149 536 L 148 539 L 149 539 L 149 536 Z M 57 537 L 56 540 L 57 540 L 57 537 Z M 259 549 L 258 551 L 260 552 L 259 549 Z M 296 554 L 297 556 Q 298 553 296 554 Z M 289 560 L 290 562 L 291 562 L 289 560 Z M 281 561 L 282 563 L 283 563 L 281 561 Z M 83 566 L 83 571 L 85 572 L 83 566 Z M 235 566 L 234 568 L 236 569 L 235 566 Z M 282 567 L 281 569 L 283 570 L 282 567 Z M 257 581 L 256 583 L 260 585 L 257 581 Z M 260 589 Q 258 592 261 591 L 260 589 Z M 231 594 L 232 596 Q 233 593 231 594 Z M 60 603 L 60 607 L 62 608 L 60 603 Z M 59 606 L 60 612 L 61 612 L 59 606 Z M 59 611 L 58 613 L 60 614 L 59 611 Z M 67 616 L 66 618 L 68 619 L 67 616 Z M 235 619 L 236 621 Q 237 618 235 619 Z M 208 636 L 207 639 L 209 640 L 210 638 L 208 636 Z M 204 644 Q 202 647 205 646 L 204 644 Z M 201 647 L 201 650 Q 204 651 203 649 L 201 647 Z M 186 654 L 186 656 L 189 655 L 186 654 Z M 140 656 Q 138 659 142 661 Q 141 663 144 662 L 140 656 Z M 94 657 L 93 659 L 95 660 L 94 657 Z M 91 661 L 90 663 L 92 664 L 91 661 Z M 94 661 L 93 663 L 95 664 L 94 661 Z M 97 661 L 96 663 L 98 664 L 97 661 Z M 97 665 L 96 667 L 98 668 L 97 665 Z M 100 665 L 99 667 L 101 668 L 100 665 Z M 95 666 L 94 668 L 96 669 L 95 666 Z M 99 668 L 100 670 Q 101 667 99 668 Z M 98 670 L 97 672 L 100 674 L 98 670 Z M 156 681 L 156 683 L 159 684 L 158 683 Q 159 680 156 681 Z M 172 682 Q 170 685 174 686 Q 176 687 175 684 L 172 682 Z M 152 686 Q 150 689 153 688 L 152 686 Z "></path><path fill="rgb(255,255,255)" stroke="rgb(255,255,255)" stroke-width="1" opacity="0.996078431372549" d="M 286.5 460 L 288 464.5 L 287 464.5 L 286.5 460 Z "></path><path fill="rgb(255,255,255)" stroke="rgb(255,255,255)" stroke-width="1" opacity="0.996078431372549" d="M 288.5 466 L 298 485.5 L 295 483.5 L 289 470.5 L 288.5 466 Z "></path><path fill="rgb(255,255,255)" stroke="rgb(255,255,255)" stroke-width="1" opacity="0.996078431372549" d="M 285.5 475 L 295 492.5 L 309 511.5 L 302 505.5 Q 290.3 492.6 285.5 475 Z "></path><path fill="rgb(255,255,255)" stroke="rgb(255,255,255)" stroke-width="1" opacity="0.996078431372549" d="M 190.5 476 L 191 478.5 L 190 478.5 L 190.5 476 Z "></path><path fill="rgb(255,255,255)" stroke="rgb(255,255,255)" stroke-width="1" opacity="0.996078431372549" d="M 298.5 487 L 301 490.5 L 298 488.5 L 298.5 487 Z "></path><path fill="rgb(255,255,255)" stroke="rgb(255,255,255)" stroke-width="1" opacity="0.996078431372549" d="M 274.5 488 L 296 520.5 L 290 515.5 L 278 497.5 L 274.5 488 Z "></path><path fill="rgb(255,255,255)" stroke="rgb(255,255,255)" stroke-width="1" opacity="0.996078431372549" d="M 301.5 492 Q 312.4 508.6 327 521.5 L 322.5 518 Q 320.3 518.8 321 516.5 L 317 514 L 312 506 Q 309.3 507.1 310 504.5 L 302 494.5 L 301.5 492 Z "></path><path fill="rgb(255,255,255)" stroke="rgb(255,255,255)" stroke-width="1" opacity="0.996078431372549" d="M 258.5 495 L 260 497.5 L 259 497.5 L 258.5 495 Z "></path><path fill="rgb(255,255,255)" stroke="rgb(255,255,255)" stroke-width="1" opacity="0.996078431372549" d="M 260.5 499 L 279 527.5 L 275 524.5 Q 265.3 512.9 260.5 499 Z "></path><path fill="rgb(255,255,255)" stroke="rgb(255,255,255)" stroke-width="1" opacity="0.996078431372549" d="M 81.5 507 L 82 510.5 L 81 510.5 L 81.5 507 Z "></path><path fill="rgb(255,255,255)" stroke="rgb(255,255,255)" stroke-width="1" opacity="0.996078431372549" d="M 328.5 522 Q 337.8 531.2 350 537.5 L 348.5 538 Q 347.4 535.2 344 536 Q 345.1 533.3 342.5 534 Q 333 529.4 328.5 522 Z "></path><path fill="rgb(255,255,255)" stroke="rgb(255,255,255)" stroke-width="1" opacity="0.996078431372549" d="M 59.5 525 L 62.5 532 L 64 531.5 L 62.5 534 L 61.5 532 L 60 532.5 L 61 529.5 L 59.5 525 Z "></path><path fill="rgb(255,255,255)" stroke="rgb(255,255,255)" stroke-width="1" opacity="0.996078431372549" d="M 73.5 525 L 74.5 527 L 73.5 525 Z "></path><path fill="rgb(255,255,255)" stroke="rgb(255,255,255)" stroke-width="1" opacity="0.996078431372549" d="M 53.5 526 L 55 530.5 L 54 530.5 L 53.5 526 Z "></path><path fill="rgb(255,255,255)" stroke="rgb(255,255,255)" stroke-width="1" opacity="0.996078431372549" d="M 280.5 530 L 281.5 532 L 280.5 530 Z "></path><path fill="rgb(255,255,255)" stroke="rgb(255,255,255)" stroke-width="1" opacity="0.996078431372549" d="M 351.5 538 L 374 548.5 L 372.5 549 L 352.5 540 L 351.5 538 Z "></path><path fill="rgb(255,255,255)" stroke="rgb(255,255,255)" stroke-width="1" opacity="0.996078431372549" d="M 375.5 549 L 400 554.5 L 396.5 556 L 376.5 551 L 375.5 549 Z "></path><path fill="rgb(255,255,255)" stroke="rgb(255,255,255)" stroke-width="1" opacity="0.996078431372549" d="M 401.5 555 L 412 555.5 L 408.5 557 L 406.5 556 L 404.5 557 L 401.5 556 L 401.5 555 Z "></path><path fill="rgb(255,255,255)" stroke="rgb(255,255,255)" stroke-width="1" opacity="0.996078431372549" d="M 413 555 L 416 556.5 L 413.5 558 L 413 555 Z "></path><path fill="rgb(255,255,255)" stroke="rgb(255,255,255)" stroke-width="1" opacity="0.996078431372549" d="M 47.5 588 L 49.5 591 L 47.5 588 Z "></path><path fill="rgb(255,255,255)" stroke="rgb(255,255,255)" stroke-width="1" opacity="0.996078431372549" d="M 51.5 590 L 52.5 592 L 51.5 590 Z "></path><path fill="rgb(255,255,255)" stroke="rgb(255,255,255)" stroke-width="1" opacity="0.996078431372549" d="M 221.5 634 L 222.5 636 L 221.5 634 Z "></path><path fill="rgb(255,255,255)" stroke="rgb(255,255,255)" stroke-width="1" opacity="0.996078431372549" d="M 210.5 652 L 211.5 654 L 210.5 652 Z "></path><path fill="rgb(255,255,255)" stroke="rgb(255,255,255)" stroke-width="1" opacity="0.996078431372549" d="M 191.5 673 L 193.5 677 L 195 676.5 Q 193.8 679.3 192.5 677 L 190 675.5 L 191.5 673 Z "></path><path fill="rgb(255,255,255)" stroke="rgb(255,255,255)" stroke-width="1" opacity="0.996078431372549" d="M 109.5 676 L 111.5 679 L 109.5 676 Z "></path><path fill="rgb(255,255,255)" stroke="rgb(255,255,255)" stroke-width="1" opacity="0.996078431372549" d="M 108.5 682 L 110.5 685 L 108.5 682 Z "></path><path fill="rgb(255,255,255)" stroke="rgb(255,255,255)" stroke-width="1" opacity="0.996078431372549" d="M 184.5 686 L 185.5 688 L 184.5 686 Z "></path><path fill="rgb(255,255,255)" stroke="rgb(255,255,255)" stroke-width="1" opacity="0.996078431372549" d="M 164.5 687 L 165.5 689 L 164.5 687 Z "></path><path fill="rgb(255,255,255)" stroke="rgb(255,255,255)" stroke-width="1" opacity="0.996078431372549" d="M 178.5 687 L 179.5 689 L 178.5 687 Z "></path><path fill="rgb(255,255,255)" stroke="rgb(255,255,255)" stroke-width="1" opacity="0.996078431372549" d="M 162.5 695 L 164.5 698 L 162.5 695 Z "></path><path fill="rgb(255,255,255)" stroke="rgb(255,255,255)" stroke-width="1" opacity="0.996078431372549" d="M 182.5 720 L 183.5 722 L 182.5 720 Z "></path></svg>